<?xml version="1.0" encoding="utf-8"?>
<!-- Generator: Adobe Illustrator 15.0.0, SVG Export Plug-In . SVG Version: 6.00 Build 0)  -->
<!DOCTYPE svg PUBLIC "-//W3C//DTD SVG 1.1//EN" "http://www.w3.org/Graphics/SVG/1.1/DTD/svg11.dtd">
<svg version="1.1" id="Layer_1" xmlns="http://www.w3.org/2000/svg" xmlns:xlink="http://www.w3.org/1999/xlink" x="0px" y="0px"
	 width="400px" height="212px" viewBox="0 0 400 212" enable-background="new 0 0 400 212" xml:space="preserve">
<g>
	<path fill="#3B4B5E" d="M253.371,189.848c2.012,0,2.943-1.375,2.943-3.336v-4.857c0-1.986-0.785-3.312-2.943-3.312
		c-2.16,0-2.944,1.324-2.944,3.312v4.857C250.427,188.473,251.359,189.848,253.371,189.848z"/>
	<path fill="#3B4B5E" d="M223.661,178.562h-2.601v4.07h2.748c1.692,0,2.602-0.711,2.602-1.986
		C226.41,179.617,225.895,178.562,223.661,178.562z"/>
	<path fill="#3B4B5E" d="M271.182,180.646c0-1.029-0.516-2.084-2.748-2.084h-2.601v4.07h2.748
		C270.273,182.635,271.182,181.924,271.182,180.646z"/>
	<path fill="#3B4B5E" d="M235.902,178.562v4.07h2.748c1.691,0,2.601-0.711,2.601-1.986c0-1.029-0.517-2.084-2.748-2.084H235.902z"/>
	<circle fill="#3B4B5E" cx="111.669" cy="141.911" r="1.887"/>
	<circle fill="#3B4B5E" cx="112.847" cy="86.865" r="1.059"/>
	<circle fill="#3B4B5E" cx="268.67" cy="159.242" r="3.463"/>
	<circle fill="#3B4B5E" cx="196.426" cy="80.768" r="3.462"/>
	<circle fill="#3B4B5E" cx="136.623" cy="37.433" r="1.918"/>
	<circle fill="#3B4B5E" cx="142.298" cy="159.241" r="1.919"/>
	<circle fill="#3B4B5E" cx="6.588" cy="157.323" r="1.919"/>
	<circle fill="#3B4B5E" cx="140.46" cy="1.919" r="1.919"/>
	<circle fill="#3B4B5E" cx="265.208" cy="131.731" r="1.919"/>
	<circle fill="#3B4B5E" cx="194.507" cy="99.371" r="1.919"/>
	<circle fill="#3B4B5E" cx="368.963" cy="68.018" r="7.133"/>
	<circle fill="#3B4B5E" cx="354.239" cy="66.228" r="2.386"/>
	<path fill="#3B4B5E" d="M397.248,127.646c-1.371-0.691-2.906-0.69-4.217-0.133c-1.629-0.576-2.787-2.189-2.906-4.094
		c0.293-0.396,0.469-0.886,0.469-1.416c0-1.316-1.066-2.387-2.387-2.387c-1.316,0-2.387,1.066-2.387,2.387
		c0,1.314,1.068,2.387,2.387,2.387c0.129,0,0.254-0.015,0.377-0.033c1.471,0.813,2.404,2.574,2.223,4.519
		c-0.02,0.235-0.061,0.464-0.109,0.687c-0.061,0.1-0.117,0.195-0.17,0.299c-0.188,0.367-0.316,0.75-0.406,1.137
		c-0.047,0.207-0.08,0.416-0.104,0.625c-0.195,1.998,0.82,4.004,2.725,4.963c2.467,1.244,5.477,0.254,6.723-2.215
		C400.707,131.902,399.717,128.893,397.248,127.646z"/>
	<circle fill="#3B4B5E" cx="363.883" cy="191.517" r="2.386"/>
	<circle fill="#3B4B5E" cx="12.716" cy="97.951" r="2.386"/>
	<circle fill="#3B4B5E" cx="72.363" cy="9.883" r="5.107"/>
	<path fill="#3B4B5E" d="M374.449,117.463c-2.938-0.773-5.188-1.562-6.91-2.342c-6.049-0.127-10.914-5.066-10.914-11.147
		c0-4.872,3.125-9.011,7.479-10.531v-8.787c0-7.162-6.367-12.534-13.729-12.534c-7.76,0-13.727,5.372-13.727,12.534v30.438h-5.203
		c-0.525,0.77-1.07,2.096-1.566,4.301c0.053,1.385-0.611,2.695-1.836,3.336c-1.748,0.914-3.977,0.106-4.975-1.805
		c-0.361-0.686-0.51-1.422-0.475-2.125c-0.156-0.641-0.799-2.309-3.291-3.707h-7.523c9.477-21.895,17.479-39.904,26.43-60.408
		c1.744,0.947,3.965,0.801,5.586-0.545c1.18-0.981,1.793-2.39,1.803-3.813c1.18-1.264,3.121-1.681,4.912-1.033
		c0.248,0.427,0.625,0.783,1.111,0.995c1.209,0.526,2.613-0.028,3.141-1.236c0.525-1.208-0.025-2.614-1.234-3.14
		c-1.207-0.525-2.613,0.028-3.141,1.236c-0.051,0.117-0.09,0.237-0.121,0.357c-1.332,1.024-3.316,1.178-5.027,0.237
		c-0.207-0.113-0.4-0.241-0.586-0.377c-0.064-0.093-0.133-0.186-0.203-0.275c-0.268-0.318-0.564-0.588-0.881-0.824
		c-0.17-0.126-0.35-0.241-0.531-0.344c-0.273-0.152-0.561-0.274-0.854-0.372c0.494-1.136,0.99-2.278,1.49-3.435
		c0.145-0.329,0.283-0.656,0.428-0.986c0.035-0.083,0.07-0.164,0.105-0.246c0.795-1.791,0.795-3.183,0.795-4.377
		c0-0.644-0.059-1.279-0.174-1.902c0.449-0.761,0.928-1.159,1.146-1.315c0.444-0.274,0.846-0.632,1.178-1.078
		c1.396-1.877,1.004-4.53-0.873-5.925c-1.053-0.781-2.351-1.001-3.53-0.714c-1.604,0.314-2.863,0.448-3.853,0.461
		c-0.944-0.636-1.959-1.166-3.011-1.57c-0.163-0.062-0.327-0.122-0.491-0.178c-1.34-0.458-2.733-0.712-4.119-0.712
		c-5.174,0-10.346,2.985-12.334,7.759L304.238,65.26c-6.444,1.322-13.092-2.191-15.526-8.56c-0.317-0.829-0.987-2.308-1.591-3.807
		c-0.146-1.445-0.557-2.812-1.18-4.054c0-0.001,0-0.002,0-0.003v0.001c-1.928-3.848-5.903-6.491-10.502-6.491
		c-6.342,0-11.506,5.029-11.73,11.315c-0.01-0.007-0.02-0.016-0.029-0.023c-0.021,0.307-0.056,0.614-0.104,0.923
		c-0.764,4.848-4.43,8.515-8.95,9.514C243,41.661,219.584,26.345,192.59,26.345c-12.213,0-23.69,3.138-33.679,8.646
		c-1.311,0.511-2.736,0.795-4.229,0.795c-6.414,0-11.614-5.165-11.614-11.537c0-0.732,0.075-1.447,0.208-2.142
		c0.361-0.979,0.559-2.037,0.559-3.142c0-5.019-4.069-9.087-9.087-9.087s-9.086,4.068-9.086,9.087c0,4.88,3.847,8.86,8.674,9.077
		c-0.008,0.017-0.018,0.032-0.026,0.049c0.297-0.024,0.596-0.039,0.899-0.039c6.203,0,11.23,5.028,11.23,11.23
		c0,2.282-0.682,4.403-1.851,6.175C132.198,57.188,124.104,73.4,122.903,91.5c-1.583,2.254-4.604,3.077-7.12,1.808
		c-0.327-0.165-0.628-0.359-0.907-0.576c-0.343-0.362-0.748-0.676-1.218-0.914c-1.937-0.977-4.25-0.391-5.511,1.281
		c-0.02-0.023-0.038-0.048-0.057-0.071c-0.061,0.153-0.127,0.305-0.202,0.455c-0.022,0.038-0.043,0.076-0.065,0.114
		c-1.564,2.937-5.529,3.953-9.073,2.373V80.046c0-7.163-6.367-12.534-13.728-12.534c-1.727,0-3.363,0.268-4.867,0.76
		c-4.852-1.573-8.834-5.121-11.006-9.719c3.121-7.123,6.319-14.45,9.706-22.275c0.796-1.791,0.796-3.183,0.796-4.377
		c0-2.307-0.768-4.502-2.036-6.41c0.991-0.075,1.772-0.901,1.772-1.912c0-1.059-0.859-1.918-1.918-1.918
		c-0.894,0-1.643,0.612-1.856,1.439c-2.617-2.52-6.179-4.13-9.689-4.13c-5.173,0-10.346,2.984-12.335,7.759L46.8,42.393
		c-2.533,0.981-4.313,0.617-4.921,0.432c-0.728-0.282-1.519-0.438-2.348-0.432c-3.462,0.023-6.249,2.799-6.226,6.197
		c0.014,1.911,0.914,3.613,2.315,4.732c1.965,1.734,3.308,3.174,4.208,4.373c3.432,0.703,6.013,3.739,6.013,7.378
		c0,4.16-3.372,7.531-7.532,7.531c-1.505,0-2.906-0.443-4.082-1.204L20.44,103.212c-0.951,0.173-1.613,0.023-1.883-0.063
		c-0.434-0.175-0.906-0.273-1.402-0.273c-2.072,0-3.752,1.68-3.752,3.751c0,1.16,0.527,2.197,1.354,2.884
		c0.874,0.798,1.539,1.49,2.046,2.099l-1.41,3.252c-1.194,2.588-1.99,6.168-1.99,6.965c0,3.484,1.37,6.779,3.736,9.246
		c-0.691,3.535-3.605,6.354-7.353,6.736c-0.529,0.055-1.05,0.053-1.561,0.008c-0.733-0.188-1.51-0.252-2.307-0.172
		c-3.62,0.371-6.254,3.604-5.884,7.225c0.37,3.619,3.603,6.254,7.222,5.884c3.521-0.358,6.107-3.428,5.907-6.926
		c0.012,0.006,0.025,0.012,0.038,0.017c-0.039-0.212-0.071-0.427-0.094-0.645c-0.458-4.475,2.798-8.471,7.272-8.928
		c0.484-0.051,0.961-0.054,1.431-0.02c0.977,0.402,2.023,0.7,3.127,0.884c0.154,0.08,0.308,0.162,0.456,0.253
		c0.004-0.061,0.005-0.119,0.008-0.181c0.687,0.094,1.396,0.146,2.125,0.146h43.768v16.313c0,7.162,5.969,12.533,13.728,12.533
		c7.759,0,13.728-5.371,13.728-12.533v-16.313h2.586c3.219,0,6.11-1.013,8.373-2.709c0.355,1.392,1.606,2.424,3.108,2.438
		c1.79,0.018,3.252-1.423,3.267-3.212c0.015-1.681-1.25-3.07-2.886-3.248c0.939-1.731,1.466-3.702,1.466-5.802
		c0-1.108-0.168-2.194-0.479-3.234c1.92-0.525,3.925-0.807,5.989-0.807c2.303,0,4.532,0.352,6.651,1
		c6.203,17.291,19.027,31.427,35.419,39.347c-1.013,5.949-5.053,11.205-11.086,13.457c-1.031,0.385-2.075,0.66-3.122,0.84
		c-1.589,0.004-3.205,0.283-4.781,0.872c-0.326,0.122-0.642,0.258-0.953,0.4c-3.181-0.653-5.56-3.467-5.531-6.814
		c0.003-0.451,0.054-0.893,0.142-1.316c0.213-0.574,0.337-1.19,0.343-1.84c0.026-3.002-2.386-5.455-5.387-5.479
		c-3.002-0.026-5.456,2.386-5.481,5.387c-0.025,2.92,2.257,5.315,5.145,5.468c-0.006,0.012-0.013,0.024-0.02,0.036
		c0.177-0.014,0.356-0.021,0.538-0.021c3.709,0.033,6.691,3.066,6.659,6.775c0,0.071-0.008,0.146-0.011,0.217
		c-3.956,3.682-5.529,9.517-3.522,14.894c2.658,7.12,10.584,10.737,17.705,8.08c6.924-2.585,10.534-10.151,8.283-17.115
		c0.028,0.004,0.056,0.011,0.084,0.013c-0.191-0.408-0.371-0.824-0.531-1.254c-2.864-7.671,0.167-16.099,6.821-20.311
		c7.775,2.986,16.219,4.63,25.047,4.63c11.034,0,21.471-2.562,30.749-7.12c4.653-0.788,7.015,0.889,7.644,1.438
		c0.058,0.059,0.117,0.111,0.176,0.168c0.305,0.285,0.643,0.543,1.006,0.771c1.002,6.354-7.042,6.977-13.784,8.105
		c-14.117,2.373-24.388-4.176-34.259,6.949c-4.253,4.793-10.486,22.168-5.62,28.328c7.624,9.649,19.745,0.562,28.438-2.399
		c14.27-4.864,24.832-5.397,39.529-1.104c11.784,3.439,34.346,16.715,45.646,5.6c8.604-8.461,0.189-14.021-1.465-23.488
		c-2.474-14.148,3.563-16.786-13.162-18.021c-14.697-1.084-28.973,0.428-36.004-10.634c-0.113-0.438-0.275-0.866-0.485-1.272
		c-0.927-2.049-1.524-3.715-1.886-5.07c12.959-11.582,21.568-27.925,23.08-46.284c7.322,1.36,13.929,6.056,17.432,13.269
		c0.566,1.17,1.029,2.363,1.396,3.567l-0.274,0.636c-1.193,2.586-1.988,6.166-1.988,6.963c0,2.072,0.485,4.078,1.374,5.883
		c-1.021,3.695-4.47,6.33-8.438,6.148c-0.529-0.025-1.047-0.104-1.545-0.224c-0.697-0.293-1.457-0.472-2.254-0.508
		c-3.637-0.166-6.718,2.646-6.884,6.278c-0.167,3.635,2.646,6.715,6.278,6.883c3.537,0.16,6.546-2.493,6.859-5.981
		c0.015,0.007,0.023,0.017,0.037,0.021c-0.009-0.215-0.011-0.435,0.002-0.651c0.203-4.491,4.013-7.967,8.504-7.763
		c0.263,0.014,0.517,0.039,0.771,0.074c2.423,2.073,5.659,3.365,9.42,3.365h43.771v16.312c0,7.162,5.967,12.533,13.727,12.533
		c0.975,0,1.92-0.084,2.828-0.246c3.449,1.07,5.615,4.57,4.914,8.172c-0.09,0.457-0.227,0.894-0.395,1.31
		c-0.322,0.543-0.566,1.147-0.695,1.806c-0.592,3.045,1.395,5.992,4.438,6.584c3.045,0.593,5.99-1.396,6.584-4.438
		c0.576-2.96-1.289-5.822-4.191-6.521c0.008-0.012,0.018-0.021,0.025-0.031c-0.184-0.021-0.363-0.047-0.551-0.084
		c-3.76-0.73-6.217-4.375-5.484-8.137c0.025-0.129,0.061-0.254,0.094-0.379c3.748-2.188,6.164-6.014,6.164-10.564v-11.84
		c3.064-8.785,8.01-10.309,9.393-10.563c1.047-0.097,2.094-0.394,3.082-0.911c4.07-2.125,5.643-7.15,3.516-11.218
		C378.9,119.458,376.789,117.959,374.449,117.463z M71.296,80.046v30.438H46.428C53.99,93.015,60.612,78.023,67.525,62.26
		c3.021,2.977,5.06,6.957,5.572,11.414C71.949,75.52,71.296,77.685,71.296,80.046z M110.21,113.639
		c-2.328-1.939-5.412-3.154-8.873-3.154h-0.694c-0.529,0.106-1.075,0.115-1.623,0h-0.27v-0.063
		c-0.413-0.112-0.824-0.298-1.231-0.562c-3.415-2.219-1.776-8.004,1.246-9.559c1.879-2.678,5.885-3.463,9.375-1.702
		c0.095,0.048,0.185,0.1,0.276,0.15c0.351,0.382,0.771,0.712,1.262,0.959c2.119,1.069,4.685,0.267,5.836-1.782
		c0.006,0.009,0.012,0.019,0.018,0.027c0.055-0.134,0.114-0.268,0.18-0.398c1.311-2.598,4.411-3.688,7.044-2.543
		c-0.007,0.396-0.015,0.789-0.015,1.185c0,1.777,0.068,3.538,0.198,5.281C120.06,106.992,115.578,111.316,110.21,113.639z
		 M147.159,99.352c-1.05,0-1.9-0.851-1.9-1.9c0-1.049,0.85-1.901,1.9-1.901c1.049,0,1.9,0.852,1.9,1.901
		C149.059,98.501,148.208,99.352,147.159,99.352z M176.608,46.146c2.12,0,3.839,1.719,3.839,3.84c0,2.121-1.719,3.839-3.839,3.839
		c-2.121,0-3.84-1.719-3.84-3.839C172.768,47.865,174.487,46.146,176.608,46.146z M185.856,145.32c-2.443,0-4.422-1.979-4.422-4.422
		c0-2.441,1.979-4.422,4.422-4.422c2.442,0,4.422,1.979,4.422,4.422C190.278,143.341,188.298,145.32,185.856,145.32z
		 M219.441,147.49c-1.051,0-1.901-0.852-1.901-1.9c0-1.048,0.851-1.9,1.901-1.9c1.049,0,1.897,0.854,1.897,1.9
		C221.34,146.641,220.49,147.49,219.441,147.49z M225.559,119.891c-0.742,3.316-4.082,5.395-7.461,4.637
		c-0.81-0.18-1.543-0.51-2.188-0.946c-0.646-0.372-2.811-1.354-6.391-0.377c-2.043,1.374-4.266,2.505-6.621,3.354
		c-0.444,0.264-0.699,0.346-0.787,0.271c-1.174,0.386-2.375,0.703-3.606,0.944c-0.349,3.767,1.975,7.388,5.733,8.531
		c0.21,0.063,0.421,0.116,0.632,0.163c-0.011,0.009-0.021,0.019-0.03,0.028c3.303,1.169,5.128,4.742,4.098,8.128
		c-1.062,3.479-4.742,5.44-8.225,4.379c-3.481-1.062-5.44-4.741-4.378-8.224c0.233-0.764,0.592-1.456,1.05-2.059
		c0.239-0.453,0.442-0.936,0.597-1.441c1.038-3.402-0.214-6.959-2.875-9.034c-0.832,0.067-1.67,0.104-2.519,0.104
		c-16.791,0-30.4-13.61-30.4-30.399s13.609-30.399,30.4-30.399s30.396,13.61,30.396,30.399c0,3.849-0.715,7.529-2.02,10.918
		c0.562,1.475,1.614,3.392,3.403,5.896C225.48,116.168,225.975,118.027,225.559,119.891z M213.8,192.742h-6.502
		c-1.202,0-2.28-0.417-2.28-1.742v-13.812c0-0.856,0.811-1.739,1.89-1.739h6.647c0.932,0,1.715,0.733,1.715,1.594
		c0,0.884-0.783,1.521-1.715,1.521h-5.104v3.949h4.636c0.858,0,1.692,0.661,1.692,1.547c0,0.883-0.734,1.568-1.692,1.568h-4.636
		v3.999h5.349c0.906,0,1.716,0.687,1.716,1.521C215.516,192.031,214.73,192.742,213.8,192.742z M228.298,192.938
		c-0.614,0-1.13-0.269-1.448-0.76l-4.121-6.451h-1.668v5.617c0,0.859-0.81,1.619-1.742,1.619c-0.908,0-1.691-0.734-1.691-1.619
		v-14.131c0-0.957,0.857-1.766,1.864-1.766h4.269c4.612,0,6.084,2.625,6.084,5.199c0,2.43-1.3,4.022-3.41,4.711l3.36,5.055
		C230.604,191.639,229.402,192.938,228.298,192.938z M262.398,177.213c0-0.957,0.855-1.766,1.863-1.766h4.27
		c4.611,0,6.084,2.625,6.084,5.199c0,2.43-1.299,4.022-3.411,4.711l3.36,5.055c0.812,1.227-0.394,2.525-1.494,2.525
		c-0.614,0-1.129-0.271-1.449-0.762l-4.122-6.449h-1.667v5.615c0,0.859-0.809,1.619-1.743,1.619c-0.907,0-1.692-0.734-1.692-1.619
		v-14.13L262.398,177.213L262.398,177.213z M246.992,181.652c0-3.482,1.791-6.426,6.378-6.426s6.378,2.941,6.378,6.426v4.856
		c0,3.582-2.135,6.452-6.378,6.452c-4.244,0-6.378-2.87-6.378-6.452V181.652z M227.889,109.051c0-2.098,1.701-3.8,3.799-3.8
		c2.101,0,3.801,1.702,3.801,3.8c0,2.1-1.7,3.801-3.801,3.801C229.589,112.852,227.889,111.15,227.889,109.051z M244.686,180.646
		c0,2.43-1.299,4.022-3.41,4.711l3.361,5.055c0.812,1.227-0.393,2.525-1.496,2.525c-0.615,0-1.131-0.271-1.449-0.762l-4.121-6.449
		h-1.668v5.615c0,0.859-0.81,1.619-1.74,1.619c-0.908,0-1.691-0.734-1.691-1.619v-14.131c0-0.957,0.857-1.768,1.863-1.768h4.27
		C243.214,175.447,244.686,178.072,244.686,180.646z M289.136,102.256c-0.308,0-0.612-0.012-0.919-0.029l-0.015,0.038
		c-9.415,2.678-19.502-0.387-25.788-7.665c-0.223-9.989-2.547-19.458-6.541-27.989c2.604-2.646,6.387-4.043,10.316-3.425
		c1.094,0.172,2.127,0.491,3.086,0.93c0-0.011-0.002-0.022-0.002-0.034c1.791,1.108,3.902,1.749,6.166,1.749
		c2.342,0,4.522-0.689,6.354-1.872c7.044-2.152,14.644,1.473,17.306,8.437c0.336,0.88,0.568,1.772,0.721,2.667
		c3.082,2.867,5.014,6.955,5.014,11.495C304.835,95.228,297.807,102.256,289.136,102.256z M328.918,129.758
		c-1.061,0-1.92-0.859-1.92-1.92c0-1.059,0.859-1.918,1.92-1.918s1.92,0.859,1.92,1.918
		C330.838,128.898,329.979,129.758,328.918,129.758z"/>
	<circle fill="#3B4B5E" cx="378.932" cy="104.073" r="1.919"/>
</g>
</svg>
