<?xml version="1.0" standalone="no"?>
<!DOCTYPE svg PUBLIC "-//W3C//DTD SVG 20010904//EN"
 "http://www.w3.org/TR/2001/REC-SVG-20010904/DTD/svg10.dtd">
<svg version="1.0" xmlns="http://www.w3.org/2000/svg"
 width="722.000000pt" height="722.000000pt" viewBox="0 0 722.000000 722.000000"
 preserveAspectRatio="xMidYMid meet">
<metadata>
Created by potrace 1.11, written by Peter Selinger 2001-2013
</metadata>
<g transform="translate(0.000000,722.000000) scale(0.100000,-0.100000)"
fill="#000000" stroke="none">
<path d="M361 6742 c-6 -2 -9 -8 -5 -13 3 -5 1 -9 -4 -9 -6 0 -8 -9 -5 -20 3
-12 -2 -27 -14 -37 -10 -10 -12 -13 -4 -8 12 9 12 7 2 -12 -6 -13 -9 -23 -5
-23 3 0 0 -8 -7 -17 -12 -14 -12 -16 0 -8 11 6 12 5 5 -6 -14 -23 -16 -51 -2
-43 7 5 8 3 4 -5 -5 -7 -13 -10 -20 -8 -6 3 -12 -6 -12 -19 -1 -13 2 -24 8
-24 5 0 6 -5 3 -10 -4 -6 -11 -7 -17 -4 -6 4 -6 -2 1 -15 7 -12 8 -21 2 -21
-5 0 -7 -14 -4 -31 3 -19 1 -29 -6 -25 -5 4 -13 2 -16 -4 -4 -6 -3 -9 2 -8 4
2 8 -1 8 -7 0 -5 -3 -9 -6 -8 -8 3 -4 -30 6 -46 5 -10 4 -12 -3 -7 -13 8 -14
4 -14 -76 0 -32 -4 -55 -9 -53 -4 3 -4 -9 2 -27 5 -21 5 -36 -1 -42 -13 -13
-13 -29 0 -21 17 10 11 -7 -8 -22 -16 -14 -16 -14 3 -9 17 5 17 4 -4 -12 -16
-13 -20 -21 -12 -26 8 -5 8 -13 1 -26 -7 -14 -6 -23 6 -34 8 -9 11 -16 5 -16
-6 0 -11 -5 -11 -11 0 -5 4 -7 10 -4 5 3 10 1 10 -4 0 -6 -7 -11 -17 -11 -14
0 -14 -3 3 -22 10 -12 13 -18 7 -14 -9 5 -13 0 -13 -13 0 -10 6 -22 13 -24 6
-3 3 -6 -7 -6 -20 -1 -20 -1 0 -16 11 -9 13 -13 4 -10 -12 4 -15 -6 -15 -59 0
-56 2 -63 18 -60 10 1 15 -1 12 -7 -4 -5 -13 -9 -21 -9 -8 0 -14 -4 -14 -10 0
-5 3 -9 7 -9 22 4 25 -2 8 -14 -14 -11 -15 -16 -5 -22 9 -5 11 -4 6 3 -4 7 -3
12 3 12 5 0 9 -9 8 -19 0 -11 -5 -17 -9 -15 -4 3 -8 1 -8 -5 0 -5 6 -11 12
-13 15 -5 17 -90 3 -100 -6 -5 -5 -8 3 -8 7 0 10 -5 7 -10 -4 -6 -1 -18 7 -27
7 -9 8 -14 2 -10 -7 4 -11 -5 -11 -23 0 -17 4 -30 8 -30 4 0 9 -7 12 -14 4
-11 1 -13 -11 -9 -16 5 -16 5 0 -12 12 -13 14 -24 7 -42 -7 -18 -5 -25 6 -29
8 -4 12 -10 9 -15 -3 -5 -10 -6 -16 -3 -7 4 -8 2 -4 -5 4 -6 12 -8 18 -5 6 4
9 1 6 -7 -3 -8 -1 -24 3 -36 6 -16 5 -23 -4 -23 -8 0 -7 -3 2 -9 8 -5 16 -17
17 -25 1 -9 -1 -14 -5 -12 -4 3 -7 -4 -8 -14 -1 -11 2 -22 8 -25 5 -3 6 1 3 9
-3 9 -2 16 4 16 5 0 9 -10 8 -22 -1 -13 3 -26 9 -30 6 -5 5 -8 -4 -8 -11 0
-11 -3 0 -16 10 -13 10 -17 -2 -25 -12 -8 -6 -13 12 -11 4 1 9 -8 12 -18 3
-13 1 -18 -6 -13 -8 4 -8 2 0 -9 7 -8 10 -18 6 -21 -3 -4 0 -7 8 -7 11 0 11
-2 1 -9 -11 -6 -10 -11 3 -25 9 -9 11 -16 5 -16 -6 0 -8 -5 -5 -10 4 -6 11 -7
17 -4 6 4 5 -3 -2 -16 -7 -13 -8 -20 -2 -16 6 3 13 2 17 -4 3 -5 0 -10 -7 -10
-10 0 -10 -2 1 -9 8 -5 11 -16 8 -25 -4 -9 -2 -16 4 -16 6 0 7 -4 4 -10 -3 -5
-1 -10 5 -10 7 0 9 -7 6 -16 -4 -10 -2 -13 6 -8 7 5 9 0 6 -14 -4 -12 -2 -22
3 -22 5 0 9 -5 9 -11 0 -5 -4 -7 -10 -4 -16 10 -11 -1 7 -16 10 -8 14 -9 10
-2 -4 6 -4 14 1 17 4 2 8 -14 9 -37 1 -25 8 -44 18 -49 10 -6 14 -17 10 -28
-3 -10 0 -22 6 -26 8 -5 9 -3 4 6 -5 8 -4 11 3 6 6 -4 8 -14 5 -23 -5 -11 -3
-14 6 -8 10 6 11 3 1 -15 -7 -12 -8 -20 -2 -16 5 3 13 -1 16 -10 3 -9 2 -12
-5 -9 -6 4 -13 -2 -16 -14 -3 -11 -9 -18 -14 -16 -4 3 -6 -4 -4 -15 2 -11 -1
-20 -6 -20 -6 0 -7 -5 -3 -12 5 -7 2 -9 -9 -5 -11 4 -14 2 -10 -9 3 -8 -1 -22
-8 -31 -8 -9 -9 -14 -3 -10 6 3 11 0 11 -7 0 -8 -7 -12 -15 -8 -10 3 -13 1 -8
-6 4 -7 3 -12 -3 -12 -6 0 -7 -7 -4 -17 4 -10 2 -14 -4 -10 -7 5 -9 0 -6 -13
4 -14 0 -20 -11 -20 -10 0 -14 -5 -11 -10 4 -6 1 -18 -7 -27 -11 -14 -11 -16
2 -8 13 8 13 6 2 -8 -8 -9 -10 -22 -6 -29 6 -10 4 -10 -9 0 -14 12 -16 11 -12
-7 2 -12 -1 -21 -7 -21 -6 0 -5 -7 3 -17 10 -11 10 -14 2 -9 -12 6 -18 -11
-14 -37 0 -4 -2 -6 -6 -6 -20 3 -26 -2 -13 -11 11 -7 11 -10 2 -10 -7 0 -10
-4 -7 -10 3 -5 1 -10 -6 -10 -8 0 -8 -4 1 -15 11 -13 10 -14 -4 -9 -12 5 -15
2 -9 -12 4 -11 3 -15 -5 -10 -7 4 -9 -2 -6 -19 2 -14 -5 -43 -16 -65 -11 -22
-19 -48 -18 -58 2 -10 -3 -16 -11 -14 -12 3 -12 1 0 -14 12 -16 12 -17 -1 -12
-12 4 -16 -1 -15 -21 0 -14 4 -32 8 -38 6 -9 3 -11 -8 -7 -17 7 -17 -16 0 -28
6 -5 3 -8 -7 -8 -9 0 -20 -5 -24 -12 -4 -6 -3 -8 3 -5 11 7 28 -22 18 -31 -3
-3 -5 0 -5 7 0 7 -4 10 -9 7 -5 -4 -8 -24 -7 -46 2 -22 -1 -40 -6 -40 -5 0 -6
-5 -3 -10 4 -6 2 -17 -5 -25 -9 -10 -7 -16 7 -24 12 -7 13 -10 4 -11 -7 0 -11
-6 -8 -15 4 -8 1 -17 -5 -21 -7 -5 -8 -2 -3 7 5 8 4 10 0 6 -12 -10 -16 -39
-5 -32 5 3 7 -5 4 -17 -3 -13 -6 -27 -7 -33 -2 -5 -7 -16 -11 -24 -6 -9 -5
-12 2 -7 11 7 11 -31 -1 -51 -3 -5 -3 -13 1 -17 10 -11 9 -30 -3 -38 -7 -5 -6
-8 1 -8 12 0 13 -38 1 -56 -3 -6 -3 -14 0 -18 12 -12 14 -48 2 -40 -8 5 -8 1
0 -14 6 -12 11 -25 10 -29 -1 -4 0 -10 1 -13 7 -19 7 -39 -1 -34 -5 3 -9 0 -9
-5 0 -6 4 -11 9 -11 6 0 6 -12 1 -31 -8 -25 -7 -29 5 -19 10 8 15 8 21 -1 5
-8 3 -9 -6 -4 -10 6 -12 4 -7 -9 4 -9 3 -15 -1 -12 -11 7 -8 -31 3 -41 4 -5 5
-1 0 7 -5 8 -4 12 0 7 5 -4 8 -28 8 -52 -1 -32 2 -43 10 -39 9 5 9 3 0 -6 -9
-10 -9 -16 2 -27 8 -7 11 -21 8 -30 -5 -12 -3 -14 8 -8 12 8 12 6 1 -8 -12
-14 -12 -19 2 -32 18 -18 21 -29 6 -20 -5 3 -10 -1 -10 -9 0 -8 4 -17 9 -21 6
-3 8 -14 6 -25 -2 -11 1 -20 6 -20 6 0 7 -4 4 -10 -3 -5 -2 -10 4 -10 5 0 8
-9 6 -20 -2 -11 0 -20 5 -20 4 0 6 -9 3 -20 -5 -18 5 -25 30 -21 5 1 6 -3 2
-9 -3 -6 -10 -8 -15 -5 -11 7 -7 -22 5 -32 4 -4 5 -2 0 6 -5 9 -4 12 3 7 6 -3
8 -19 6 -33 -3 -15 -2 -24 2 -20 12 12 34 -26 22 -40 -7 -9 -7 -13 1 -13 6 0
11 -9 11 -21 0 -13 4 -18 13 -13 8 5 8 3 -2 -9 -11 -14 -11 -18 2 -23 9 -3 13
-12 10 -20 -3 -8 1 -14 10 -14 10 0 15 -7 12 -20 -2 -11 1 -20 6 -20 6 0 8 -4
4 -9 -3 -6 1 -13 8 -18 18 -11 31 -46 14 -38 -6 4 -4 0 5 -8 14 -11 15 -16 5
-26 -9 -10 -8 -11 7 -5 13 5 17 4 12 -4 -4 -7 -3 -12 2 -12 5 0 12 -14 16 -31
3 -17 10 -28 15 -25 5 3 8 -2 7 -12 0 -9 4 -16 11 -15 8 2 10 -4 6 -14 -5 -11
-3 -14 6 -8 10 6 11 2 6 -15 -5 -17 -4 -21 6 -15 9 6 11 3 6 -8 -4 -11 1 -22
13 -29 13 -9 16 -16 9 -24 -8 -9 -5 -11 12 -7 15 4 20 2 15 -5 -3 -6 -1 -14 5
-18 6 -3 17 -22 25 -40 8 -19 19 -34 26 -34 6 0 9 -3 5 -6 -3 -3 4 -16 16 -28
13 -11 18 -18 13 -14 -22 17 -27 7 -6 -12 13 -11 27 -20 31 -20 8 0 24 -40 21
-52 -1 -4 5 -5 14 -1 11 4 15 1 12 -13 -2 -11 6 -23 22 -31 14 -7 21 -13 15
-13 -5 0 -2 -5 8 -11 9 -5 17 -17 17 -24 0 -8 7 -15 16 -15 11 0 14 -5 10 -17
-4 -10 -4 -14 0 -11 8 8 34 -14 27 -24 -2 -5 1 -8 7 -8 15 0 34 -20 43 -43 4
-10 11 -15 17 -12 5 3 10 -1 10 -9 0 -9 7 -16 16 -16 8 0 12 -4 9 -10 -3 -5
-1 -10 5 -10 6 0 8 -5 4 -12 -5 -9 -2 -8 9 1 15 12 17 12 11 -3 -5 -12 0 -19
15 -23 11 -3 21 -10 21 -15 0 -5 -5 -6 -12 -2 -7 4 -8 3 -4 -4 4 -6 13 -9 21
-5 10 3 15 -1 15 -12 0 -9 4 -13 10 -10 5 3 10 -2 10 -12 0 -15 2 -16 10 -3 8
13 10 12 10 -2 0 -10 5 -18 11 -18 5 0 7 -5 4 -10 -4 -6 -2 -9 4 -8 5 2 17 -6
26 -17 9 -11 14 -13 10 -5 -4 10 -2 9 8 -2 8 -10 20 -18 28 -18 11 0 11 -2 -1
-10 -12 -8 -10 -10 9 -10 13 0 22 -3 18 -6 -12 -12 17 -33 31 -22 9 8 12 5 12
-11 0 -14 6 -21 20 -21 11 0 20 -7 20 -15 0 -8 9 -15 19 -15 11 0 28 -11 39
-25 11 -14 25 -25 31 -25 6 0 11 -4 11 -9 0 -6 9 -8 19 -6 14 3 18 -1 14 -11
-3 -8 1 -14 11 -14 9 0 16 -5 16 -11 0 -5 4 -8 9 -4 6 3 21 -6 34 -20 13 -14
33 -27 45 -28 11 0 18 -5 15 -11 -4 -5 1 -7 10 -3 11 4 14 2 10 -9 -4 -10 3
-14 25 -14 17 0 34 -5 38 -12 5 -7 3 -8 -7 -3 -12 8 -12 6 0 -8 10 -13 17 -15
27 -6 8 6 15 9 15 5 1 -3 2 -9 3 -13 3 -20 18 -32 31 -26 8 3 15 0 15 -6 0 -6
7 -8 17 -4 12 5 15 2 11 -8 -4 -11 2 -15 21 -17 14 -1 31 -8 36 -15 6 -8 15
-12 20 -10 6 2 21 -6 33 -18 13 -11 29 -18 37 -16 7 3 16 -1 19 -9 3 -8 15
-14 26 -14 12 0 18 -4 15 -10 -4 -6 -3 -10 2 -9 26 4 44 -2 37 -13 -5 -8 0 -7
11 2 10 8 16 10 12 4 -3 -6 10 -18 31 -28 34 -15 35 -15 17 0 -18 15 -18 16
-2 10 10 -3 21 -6 23 -6 2 0 4 -7 4 -15 0 -18 26 -20 33 -2 3 7 6 4 6 -7 1
-13 6 -17 22 -13 17 5 18 3 7 -10 -12 -15 -11 -15 11 -4 13 7 21 9 17 3 -3 -5
1 -13 10 -16 8 -3 13 -2 10 2 -3 5 1 9 9 9 8 0 12 -4 9 -9 -3 -4 2 -8 10 -8 9
0 16 -5 16 -11 0 -8 6 -7 17 2 11 10 14 10 9 2 -4 -8 -1 -13 8 -13 9 0 16 -6
16 -12 0 -10 3 -9 9 1 5 8 10 9 12 2 2 -5 19 -11 37 -13 21 -1 32 -7 32 -18 0
-13 1 -13 10 0 7 11 10 11 10 2 0 -7 5 -10 10 -7 6 3 10 0 10 -7 0 -9 3 -9 10
2 6 10 10 11 10 3 0 -7 12 -13 26 -13 16 0 23 -4 18 -12 -4 -6 -3 -8 4 -4 6 3
13 2 16 -3 3 -5 15 -7 26 -4 13 3 20 0 20 -8 0 -11 2 -11 10 1 6 9 13 11 18 5
4 -5 13 -10 20 -11 39 -3 43 -5 36 -16 -6 -10 -5 -10 7 -1 12 10 20 9 36 -2
11 -8 23 -12 26 -8 4 3 14 0 24 -8 9 -8 14 -9 10 -2 -4 6 -2 15 4 19 8 4 9 3
5 -4 -4 -7 -3 -12 3 -12 6 0 9 -6 7 -12 -1 -7 -1 -10 1 -5 3 4 9 5 14 2 5 -4
7 0 6 7 -2 7 -2 10 0 6 3 -5 13 -8 24 -8 10 0 19 -4 19 -8 0 -5 12 -8 28 -7
15 1 33 -2 40 -8 8 -6 12 -5 13 4 0 8 4 5 9 -6 l9 -20 1 20 1 20 9 -20 c6 -13
9 -15 9 -5 1 11 3 12 9 3 4 -7 34 -14 67 -15 33 -2 63 -7 67 -13 5 -6 11 -6
19 2 10 10 15 9 26 -5 9 -10 12 -11 7 -2 -7 13 -5 13 9 1 15 -12 17 -11 17 4
0 10 3 15 8 11 4 -4 7 -13 7 -19 0 -15 27 -16 37 -2 5 6 8 4 8 -5 0 -13 1 -13
10 0 6 10 10 11 10 3 0 -7 7 -13 16 -13 9 0 12 5 8 13 -6 9 -4 9 7 1 8 -6 46
-10 84 -10 39 1 76 -3 84 -9 9 -6 13 -6 9 0 -7 12 292 12 312 0 7 -5 11 -4 8
1 -4 5 18 9 47 9 29 0 51 -3 49 -7 -2 -3 8 -4 23 0 16 4 53 7 83 7 30 -1 58 4
62 10 5 6 8 6 8 -2 0 -7 5 -13 11 -13 5 0 7 6 3 13 -6 9 -5 9 7 0 10 -8 19 -9
29 -1 12 8 12 9 -3 4 -10 -3 -15 -2 -12 4 3 5 20 7 37 5 18 -2 39 1 47 8 12 9
13 9 7 0 -4 -7 -3 -13 3 -13 5 0 13 5 17 11 4 8 9 7 15 -2 6 -10 9 -10 9 -2 0
6 9 10 20 8 11 -2 22 1 26 6 4 6 11 6 20 -2 10 -8 17 -7 29 5 9 9 21 16 28 16
6 0 2 -7 -9 -16 -18 -15 -18 -15 2 -5 12 6 25 7 29 3 5 -4 6 0 3 9 -4 9 -1 16
8 16 8 0 14 -7 14 -16 0 -14 2 -14 9 -1 6 8 7 18 4 24 -4 5 -1 6 8 0 21 -13
39 -14 39 -2 0 7 5 6 14 -1 11 -9 17 -8 28 2 7 7 19 12 27 9 9 -3 11 0 6 8 -6
9 -3 9 15 0 20 -11 22 -10 17 4 -6 14 -3 15 13 6 15 -8 20 -8 20 1 0 8 5 7 17
-2 10 -8 14 -9 10 -2 -4 6 -3 14 3 18 5 3 10 1 10 -6 0 -6 9 -1 21 12 11 13
18 19 14 12 -8 -16 45 -12 63 5 15 13 36 7 27 -9 -10 -15 2 -10 16 8 12 14 12
16 0 8 -9 -5 -12 -4 -8 2 4 6 16 13 27 16 18 5 19 3 8 -10 -11 -14 -11 -15 8
-5 12 6 25 8 29 4 5 -4 5 -2 1 5 -4 8 3 14 21 18 15 4 38 10 49 15 14 5 26 4
34 -3 10 -9 11 -9 6 1 -4 7 -1 12 8 12 9 0 16 5 16 11 0 8 5 7 15 -1 13 -11
14 -10 10 2 -4 10 3 14 27 14 20 0 32 5 31 12 -2 6 4 9 12 6 8 -4 15 -1 15 4
0 6 16 9 37 7 24 -2 32 0 22 6 -11 7 -11 9 4 9 10 0 16 4 13 8 -3 5 8 8 24 7
18 -1 30 3 30 11 0 6 7 15 16 18 26 10 29 7 8 -10 -18 -14 -18 -15 4 -4 12 6
22 16 22 22 0 7 4 7 14 -1 10 -9 16 -8 26 4 10 12 10 15 0 15 -8 0 -10 3 -7 6
4 4 14 1 22 -6 9 -7 15 -9 14 -4 -4 21 2 24 24 13 20 -11 21 -11 8 5 -12 14
-12 16 3 10 10 -4 18 0 22 11 5 13 9 14 15 3 5 -7 9 -8 9 -2 0 6 20 19 44 29
25 10 43 22 41 26 -3 4 2 9 10 12 10 4 12 1 8 -11 -3 -10 1 -8 12 6 13 17 20
20 30 12 10 -8 13 -6 11 7 0 11 6 18 17 18 10 0 25 9 33 19 8 11 14 16 14 10
0 -5 5 -2 10 6 6 10 10 11 10 3 0 -7 5 -13 11 -13 5 0 7 5 4 10 -3 6 -1 10 5
10 6 0 9 4 6 8 -3 5 1 9 9 10 8 1 22 3 30 4 8 1 12 5 9 10 -5 7 12 12 19 6 4
-5 35 27 32 32 -2 3 4 11 12 19 13 12 14 11 8 -9 l-7 -22 21 21 c13 13 19 27
14 34 -4 7 0 7 10 -2 12 -9 17 -10 17 -2 0 7 5 9 11 6 6 -4 9 0 7 10 -2 10 4
20 12 22 13 4 13 3 0 -6 -19 -13 0 -14 20 -1 8 5 11 10 5 10 -5 0 1 7 13 16
12 8 27 12 32 9 6 -4 9 -2 8 5 -2 6 11 18 27 28 17 9 32 20 33 25 2 4 8 5 13
2 5 -4 6 1 3 9 -4 12 0 16 16 16 11 0 18 5 15 10 -3 6 1 10 9 10 9 0 16 5 16
11 0 6 7 9 15 5 8 -3 14 -2 14 2 -1 4 -1 16 0 27 1 17 3 18 11 5 9 -13 14 -7
11 13 0 4 6 7 14 7 8 0 15 7 15 16 0 14 3 14 15 4 8 -7 16 -10 16 -6 1 3 3 11
4 16 1 6 3 15 4 21 0 5 6 7 13 3 8 -5 9 -2 4 11 -6 16 -4 16 11 4 9 -8 14 -9
11 -4 -6 10 16 37 25 29 2 -2 10 2 17 11 11 13 10 14 -6 9 -18 -6 -18 -6 1 9
11 8 23 13 27 11 3 -2 9 5 13 16 3 11 11 20 16 20 6 0 7 4 4 10 -4 6 1 7 11 3
12 -4 15 -3 10 5 -4 7 -2 12 6 12 7 0 22 13 33 29 10 16 24 27 30 23 5 -3 4 2
-4 11 -12 15 -12 17 1 12 8 -3 23 4 34 17 18 22 18 22 0 8 -18 -14 -18 -14 -6
7 8 12 16 20 20 18 7 -4 30 22 24 28 -2 2 3 10 13 18 14 12 16 12 8 0 -5 -9
-4 -12 3 -7 6 4 8 14 5 23 -4 10 -2 14 4 10 7 -4 17 6 24 22 7 16 16 28 19 27
3 -1 15 8 27 21 21 21 19 32 -3 15 -5 -4 1 3 14 16 12 13 19 28 16 34 -4 6 -3
8 3 5 6 -4 17 1 24 10 10 11 10 14 2 9 -9 -5 -11 -2 -7 8 3 9 12 12 21 9 13
-5 15 -2 11 15 -4 16 -2 22 10 22 8 0 12 3 9 7 -4 3 1 12 11 20 9 8 11 11 4 8
-11 -6 -11 -3 -1 13 7 12 17 18 23 15 5 -4 7 1 3 10 -3 10 -2 17 4 17 6 0 8 4
5 8 -3 5 4 16 15 25 11 10 17 22 14 27 -3 6 2 10 12 10 14 0 15 2 5 9 -11 7
-10 9 3 15 9 3 13 11 10 17 -4 6 6 24 21 41 16 17 24 28 18 25 -6 -3 -11 0
-11 8 0 8 3 14 6 13 18 -2 31 3 31 13 0 5 -4 8 -9 5 -5 -4 -7 3 -4 15 4 13 11
18 21 14 11 -4 12 -2 4 7 -7 9 -6 17 4 26 10 10 14 10 14 1 0 -7 3 -10 6 -7 3
4 1 16 -6 27 -9 18 -8 21 7 22 11 0 13 3 6 6 -7 2 -13 9 -13 14 0 4 7 5 17 2
11 -4 14 -3 9 6 -4 6 -2 19 6 28 11 14 11 15 0 9 -11 -7 -11 -4 -1 12 7 12 18
18 24 14 5 -3 4 2 -4 11 -11 14 -11 18 1 22 9 4 14 16 12 31 -2 18 2 24 11 20
11 -4 12 0 5 19 -7 20 -6 23 6 18 12 -4 14 0 8 22 -6 22 -4 26 7 20 11 -7 11
-5 -1 10 -12 15 -12 17 -1 10 11 -6 13 -4 8 9 -6 14 -3 17 9 12 13 -5 14 -4 6
7 -9 10 -8 17 0 25 7 7 9 12 5 12 -4 0 -3 10 4 21 9 17 8 20 -2 14 -9 -6 -11
-3 -6 9 4 10 7 22 7 27 0 5 4 9 10 9 5 0 7 -8 3 -17 -3 -10 -3 -15 1 -12 14
13 17 59 4 59 -10 0 -10 2 -1 8 6 4 10 22 9 40 -1 21 2 31 9 28 8 -3 11 12 11
45 -1 27 2 49 7 49 4 0 7 5 7 11 0 5 -5 7 -11 3 -7 -4 -6 3 2 17 17 31 20 51
7 43 -6 -4 -5 2 1 15 8 14 8 21 1 21 -8 0 -8 6 0 20 8 14 8 20 0 20 -6 0 -8 5
-5 10 4 6 10 8 14 6 9 -6 5 53 -5 62 -4 4 -4 -2 0 -13 6 -17 5 -18 -6 -7 -11
11 -10 16 6 28 14 10 16 14 5 14 -12 0 -12 2 1 10 13 9 13 10 0 10 -9 0 -11 3
-4 8 14 9 27 45 14 37 -6 -3 -10 -1 -10 5 0 6 -5 8 -12 4 -7 -4 -8 -3 -4 5 4
6 12 9 17 6 14 -9 11 8 -8 34 -9 14 -11 21 -5 17 8 -5 12 1 12 18 0 13 -6 27
-12 29 -10 4 -10 6 0 6 6 1 12 8 12 16 0 8 -6 15 -12 15 -9 0 -9 3 -3 8 9 6
12 26 5 35 -7 9 -4 57 5 57 6 0 6 3 -1 8 -6 4 -11 29 -11 55 -1 30 -7 55 -16
64 -11 12 -13 22 -7 39 5 13 6 23 2 23 -19 -3 -25 2 -12 11 10 6 11 10 3 10
-7 0 -13 5 -13 11 0 5 6 7 13 3 8 -5 8 -3 -2 9 -7 9 -16 15 -20 13 -4 -3 -7 4
-8 14 -1 11 3 22 8 25 5 4 7 11 3 16 -3 5 -9 7 -13 4 -5 -2 -6 7 -3 22 4 20 2
24 -9 18 -11 -7 -11 -5 1 10 9 11 10 16 3 11 -13 -7 -17 3 -14 37 1 9 -3 17
-10 17 -6 0 -9 8 -6 20 4 14 0 20 -11 20 -15 0 -15 2 -2 10 11 7 11 10 2 10
-7 0 -10 5 -7 10 3 6 0 10 -7 10 -9 0 -9 3 2 10 12 7 12 10 1 10 -7 0 -11 6
-8 15 4 8 1 17 -5 21 -7 4 -8 3 -4 -4 5 -8 1 -10 -10 -5 -11 4 -13 8 -6 11 7
2 12 10 12 18 0 9 -4 13 -9 10 -4 -3 -7 6 -5 19 1 14 -3 28 -8 32 -7 4 -8 1
-3 -7 5 -9 4 -11 -4 -6 -9 6 -9 11 -1 21 7 9 6 16 -5 25 -13 11 -13 15 -3 21
9 6 5 9 -12 9 -20 0 -22 2 -10 10 12 7 12 10 1 10 -7 0 -11 6 -7 15 3 8 1 15
-4 15 -6 0 -10 11 -10 24 0 14 -5 28 -12 32 -7 5 -8 3 -3 -6 6 -9 4 -11 -4 -6
-7 5 -10 14 -7 22 3 7 1 16 -4 19 -6 4 -10 15 -10 26 0 14 -4 18 -12 13 -10
-6 -10 -4 0 8 10 13 10 19 -3 31 -8 9 -12 24 -9 34 5 15 4 15 -5 3 -7 -10 -11
-11 -11 -2 0 6 1 13 2 15 1 1 -4 13 -11 26 -11 19 -11 22 0 16 9 -6 11 -3 6 8
-6 16 3 22 26 18 5 -1 6 3 2 9 -3 6 -11 7 -17 4 -7 -4 -8 -2 -4 4 4 7 15 12
24 12 15 0 15 2 2 10 -12 8 -13 11 -1 19 11 7 11 9 0 14 -10 4 -8 6 4 6 10 1
16 5 12 10 -3 5 -1 13 5 16 6 4 8 15 5 26 -5 14 -2 19 12 19 15 0 16 2 3 10
-10 6 -11 10 -2 10 6 0 12 12 12 26 0 17 4 23 13 18 7 -5 6 0 -3 11 -11 14
-12 17 -1 11 9 -6 12 -5 9 5 -3 8 2 20 11 27 12 10 13 12 1 6 -13 -7 -13 -6
-1 10 8 10 15 32 15 49 1 22 5 31 15 29 12 -3 12 -1 0 14 -12 16 -12 17 4 11
15 -6 16 -4 6 14 -6 12 -7 24 -3 28 10 7 13 19 16 57 1 13 7 23 13 20 8 -3 9
9 5 40 -4 24 -3 41 1 38 4 -2 10 0 14 6 3 5 2 10 -4 10 -6 0 -8 7 -4 16 5 13
7 13 14 2 5 -7 9 -8 9 -3 0 6 -5 16 -12 23 -9 9 -9 12 3 12 8 0 14 10 14 24 0
13 -4 22 -9 19 -5 -4 -5 0 0 8 5 8 10 25 10 39 1 14 2 31 3 38 1 8 6 10 14 6
8 -5 8 -2 -2 9 -9 11 -10 17 -2 17 6 0 11 5 11 11 0 5 -6 7 -12 3 -9 -5 -9 -2
1 9 13 16 9 21 -14 18 -5 -1 1 8 14 19 13 11 18 20 12 20 -6 0 -8 7 -5 15 4 8
10 12 16 9 5 -3 4 3 -3 14 -10 16 -10 24 -1 34 9 11 9 17 0 26 -9 9 -9 12 3
12 12 0 12 2 -1 11 -10 7 -11 12 -3 15 6 3 9 18 6 36 -3 19 -1 28 6 24 5 -4
13 -1 17 5 5 8 3 9 -6 4 -9 -5 -11 -1 -6 16 3 13 3 18 0 12 -3 -7 -10 -13 -15
-13 -6 0 -5 8 1 20 6 11 16 18 21 14 6 -3 5 3 -2 14 -7 12 -17 18 -21 16 -4
-3 -8 0 -8 5 0 6 6 11 14 11 8 0 18 5 22 12 4 6 3 8 -3 5 -6 -4 -13 0 -17 8
-3 10 1 15 12 16 13 0 11 3 -5 9 -13 5 -23 12 -23 14 0 3 7 3 15 0 11 -5 13
-2 9 10 -3 9 -11 13 -18 10 -6 -3 -2 2 8 10 20 16 20 16 0 17 -17 0 -16 1 4 9
12 5 22 12 22 15 0 4 -4 4 -9 1 -5 -3 -11 1 -15 9 -3 10 1 15 12 16 13 0 11 3
-5 9 -13 5 -23 12 -23 14 0 3 6 3 14 0 8 -3 17 0 22 7 5 8 3 10 -6 4 -10 -6
-12 -3 -8 13 4 12 1 25 -4 29 -7 4 -8 1 -3 -7 5 -8 4 -11 -3 -6 -6 4 -9 13 -5
22 4 12 8 12 22 2 14 -12 15 -11 2 5 -13 16 -13 20 0 28 11 8 9 9 -6 5 -16 -5
-21 -1 -22 14 -1 11 3 20 8 20 6 0 7 -5 3 -12 -5 -7 -3 -8 5 -4 9 6 9 12 -3
25 -15 16 -15 48 0 73 4 6 3 9 -2 6 -5 -4 -10 21 -11 53 -2 38 1 58 7 54 16
-10 11 1 -7 16 -14 12 -16 12 -8 0 5 -10 4 -12 -4 -7 -9 6 -9 11 -1 21 8 9 6
14 -6 19 -13 5 -14 10 -6 18 6 6 8 18 3 27 -4 9 -7 32 -6 51 1 19 -3 38 -8 41
-5 4 -5 15 2 27 8 15 8 23 -1 28 -7 5 -8 3 -3 -7 8 -12 6 -12 -8 0 -18 15 -23
26 -7 16 6 -3 10 -1 10 4 0 6 -6 11 -12 11 -9 0 -8 4 2 10 8 5 10 10 4 10 -5
0 -11 21 -13 47 -2 52 -8 66 -22 58 -5 -4 -5 5 1 20 7 19 7 24 -2 19 -8 -5 -9
-2 -5 9 3 10 2 17 -3 17 -11 0 -9 22 3 31 4 3 0 12 -9 20 -16 12 -17 12 -9 -1
8 -13 7 -13 -8 -1 -21 17 -55 20 -79 9 -12 -6 -18 -5 -18 4 0 10 -2 10 -8 1
-5 -8 -13 -9 -22 -3 -8 5 -22 4 -33 -2 -15 -7 -22 -7 -28 3 -6 10 -9 11 -9 2
0 -15 -21 -13 -32 2 -5 6 -8 6 -8 -1 0 -7 -18 -11 -45 -10 -34 1 -45 -3 -46
-14 0 -9 -2 -10 -5 -3 -3 7 -12 9 -21 6 -11 -4 -14 -2 -9 5 5 8 2 10 -9 6 -14
-6 -14 -8 2 -20 16 -12 14 -12 -14 -4 -24 6 -33 5 -33 -3 0 -7 -4 -6 -10 3 -5
8 -10 10 -10 4 0 -6 -15 -9 -35 -8 -19 2 -35 -1 -35 -6 0 -6 -5 -10 -11 -10
-5 0 -7 4 -4 10 3 5 0 7 -9 4 -9 -3 -12 -13 -9 -22 4 -13 2 -12 -11 3 -12 14
-16 15 -13 4 4 -12 -4 -15 -44 -15 -30 1 -51 -4 -54 -12 -5 -14 -26 -12 -37 3
-5 6 -8 3 -8 -7 0 -12 -6 -16 -22 -13 -12 3 -30 -3 -41 -13 -10 -9 -34 -17
-54 -17 -19 -1 -39 -8 -44 -16 -6 -10 -9 -11 -9 -1 0 10 -5 10 -22 1 -13 -7
-26 -17 -30 -23 -5 -7 -8 -6 -8 4 0 9 -3 11 -8 5 -4 -5 -17 -15 -29 -22 -17
-10 -23 -10 -26 0 -3 7 -6 3 -6 -7 -1 -11 -4 -16 -8 -13 -3 4 -13 1 -21 -6
-13 -10 -14 -9 -7 2 5 8 -6 5 -23 -8 -18 -12 -36 -19 -42 -16 -5 3 -10 -2 -10
-12 0 -14 -2 -15 -9 -4 -6 9 -10 10 -12 2 -3 -7 -13 -14 -24 -15 -11 -2 -19
-9 -17 -15 2 -9 -4 -9 -20 0 -21 11 -22 11 -9 -5 8 -9 10 -16 5 -15 -5 1 -22
1 -38 0 -22 -1 -26 -4 -17 -14 8 -11 6 -13 -12 -12 -12 1 -28 -6 -34 -16 -8
-10 -23 -16 -38 -15 -13 2 -22 0 -20 -4 3 -4 -3 -14 -12 -21 -11 -10 -14 -10
-9 -2 5 9 2 11 -9 7 -9 -4 -14 -13 -10 -22 5 -13 3 -13 -12 -1 -15 12 -16 12
-11 -3 5 -11 2 -15 -10 -14 -9 2 -22 -2 -29 -8 -33 -29 -41 -34 -47 -29 -3 4
-6 1 -6 -6 0 -7 -5 -9 -12 -5 -8 5 -9 2 -4 -11 5 -15 4 -16 -9 -5 -12 10 -15
9 -15 -5 0 -15 -2 -16 -17 -4 -15 12 -16 12 -10 -3 6 -17 -3 -23 -26 -19 -5 1
-11 -8 -14 -19 -5 -17 -8 -18 -21 -8 -13 11 -14 11 -8 0 5 -9 1 -15 -13 -19
-11 -3 -18 -10 -14 -16 4 -6 0 -8 -11 -4 -10 4 -15 3 -11 -3 6 -9 -8 -14 -28
-11 -5 1 -6 -3 -2 -9 5 -9 -7 -14 -27 -11 -4 0 -5 -8 -3 -18 2 -14 -2 -17 -21
-15 -13 1 -22 -1 -20 -4 4 -7 -19 -33 -29 -32 -3 0 -5 -3 -4 -7 1 -7 -41 -27
-52 -25 -4 1 -6 -6 -5 -15 0 -9 -5 -18 -13 -21 -9 -3 -11 0 -6 8 5 9 4 11 -3
6 -7 -4 -12 -13 -12 -21 0 -8 -5 -17 -12 -21 -7 -5 -8 -2 -3 7 4 8 -12 -6 -35
-31 -24 -25 -40 -39 -35 -31 5 10 4 12 -3 7 -7 -4 -12 -14 -12 -22 0 -8 -9
-14 -21 -14 -11 0 -18 -4 -15 -8 3 -5 -1 -9 -9 -9 -8 0 -12 4 -9 8 2 4 -6 8
-18 8 -13 0 -33 1 -45 1 -13 0 -23 5 -23 11 0 5 5 7 10 4 6 -3 10 -1 10 5 0 6
-10 8 -25 4 -14 -3 -31 -1 -39 5 -11 9 -15 9 -19 -1 -4 -11 -7 -11 -15 0 -4 7
-22 12 -39 10 -17 -1 -37 3 -45 8 -7 6 -26 11 -41 12 -15 1 -36 6 -46 12 -10
5 -21 7 -23 4 -10 -10 -48 -13 -43 -3 4 5 10 7 15 4 5 -3 11 -1 14 4 4 5 -7 7
-24 5 -20 -4 -30 -1 -30 8 0 8 -3 9 -8 3 -9 -13 -42 -16 -42 -4 0 6 -10 5 -21
-2 -12 -6 -19 -7 -15 -1 3 5 -1 13 -10 16 -8 3 -13 2 -10 -2 2 -4 -5 -8 -17
-9 -12 0 -16 1 -9 4 6 3 12 8 12 11 0 10 -83 8 -99 -2 -10 -6 -12 -6 -7 2 7
11 -33 17 -99 14 -11 -1 -27 2 -35 5 -26 10 -40 12 -35 3 3 -5 0 -12 -6 -16
-7 -4 -9 -3 -6 2 3 6 2 16 -4 24 -7 12 -9 11 -9 -5 0 -16 -2 -17 -9 -6 -13 20
-71 20 -72 1 -1 -8 -5 -4 -9 10 -6 20 -8 21 -9 6 -1 -16 -4 -17 -13 -8 -7 7
-17 12 -23 12 -5 0 -3 -5 5 -10 8 -5 10 -10 4 -10 -6 0 -17 6 -23 14 -12 15
-28 16 -48 3 -8 -5 -13 -3 -13 3 0 6 -4 8 -10 5 -18 -11 -50 -14 -50 -4 0 6
-8 6 -20 -1 -11 -6 -20 -7 -20 -2 0 7 -70 9 -77 2 -2 -1 -6 -3 -10 -4 -5 -1
-14 -5 -20 -9 -9 -5 -11 -3 -7 6 3 8 -1 14 -10 14 -8 0 -13 -4 -11 -8 3 -4 -2
-9 -10 -12 -9 -4 -12 -1 -9 7 3 7 -2 13 -10 13 -8 0 -13 -4 -10 -9 3 -4 -2 -8
-11 -8 -10 0 -14 5 -9 13 6 10 4 10 -7 0 -7 -7 -17 -13 -22 -13 -4 0 -5 6 -1
13 6 9 4 9 -8 -1 -9 -7 -34 -11 -61 -9 -26 3 -48 0 -49 -4 -2 -5 -14 -11 -26
-14 -19 -3 -23 -1 -17 12 5 15 4 15 -12 2 -20 -17 -31 -18 -52 -5 -10 6 -12 5
-7 -2 10 -16 -7 -15 -23 1 -9 7 -11 8 -7 1 4 -8 -5 -12 -28 -12 -19 0 -39 -3
-45 -6 -5 -4 -13 -1 -16 4 -5 7 -12 5 -21 -7 -11 -14 -13 -15 -14 -3 0 13 -1
13 -10 0 -9 -13 -10 -13 -10 0 0 13 -2 13 -9 0 -6 -8 -7 -18 -4 -24 3 -5 1 -6
-5 -2 -6 4 -9 12 -6 19 3 8 -4 13 -18 14 -13 0 -17 -1 -10 -4 23 -9 12 -19
-20 -18 -18 1 -36 -4 -40 -9 -5 -7 -8 -7 -8 1 0 9 -7 10 -24 3 -16 -6 -27 -5
-35 3 -9 9 -13 6 -18 -11 -5 -21 -6 -21 -20 -5 -8 10 -12 13 -9 8 2 -6 -4 -16
-14 -23 -17 -10 -18 -9 -13 6 5 14 3 15 -8 5 -7 -7 -25 -13 -40 -13 -15 0 -31
-4 -34 -10 -3 -5 -12 -10 -18 -10 -7 0 -6 4 3 10 12 7 10 9 -8 7 -12 -1 -21
-6 -18 -13 3 -7 -6 -11 -25 -9 -16 1 -32 -1 -34 -6 -3 -4 -12 -6 -20 -2 -9 3
-15 -1 -15 -8 0 -11 -3 -11 -10 1 -7 11 -10 11 -10 2 0 -9 -5 -10 -18 -3 -14
7 -19 6 -19 -4 0 -8 5 -11 10 -8 6 3 7 1 3 -6 -6 -9 -11 -9 -22 0 -10 8 -14 8
-14 0 0 -6 -5 -11 -11 -11 -5 0 -8 4 -4 9 3 6 -6 6 -23 1 -30 -8 -55 0 -50 16
2 5 -1 11 -7 12 -32 12 -46 25 -41 39 6 14 4 14 -11 2 -9 -8 -14 -9 -11 -4 7
12 -17 37 -26 28 -3 -4 -6 2 -6 13 0 16 -2 17 -10 4 -9 -13 -10 -13 -10 0 0 9
-9 23 -20 33 -11 9 -20 14 -20 11 0 -4 -7 -1 -15 6 -8 7 -12 17 -9 22 4 6 -4
4 -17 -3 -21 -11 -22 -10 -12 3 11 12 8 17 -15 29 -15 8 -37 24 -50 37 -21 20
-35 26 -54 23 -5 0 -8 7 -8 17 0 27 -10 33 -33 21 -14 -8 -18 -8 -13 0 4 6 2
11 -4 11 -6 0 -8 5 -4 12 4 6 3 8 -4 4 -6 -3 -15 1 -20 10 -5 9 -12 15 -15 15
-20 -3 -28 0 -23 8 3 5 -1 12 -10 15 -10 4 -13 2 -9 -7 4 -6 -2 -2 -13 11 -14
15 -22 18 -25 10 -3 -7 -6 -2 -6 12 -1 20 -3 22 -11 10 -5 -8 -10 -10 -10 -5
0 6 -9 16 -21 23 -15 10 -19 10 -14 1 6 -8 4 -10 -4 -5 -7 5 -10 14 -7 22 3 8
0 11 -10 7 -7 -3 -14 0 -14 6 0 6 -7 8 -15 5 -8 -4 -15 -1 -15 6 0 6 -4 8 -10
5 -5 -3 -10 1 -10 9 0 9 -5 16 -11 16 -5 0 -7 -4 -4 -10 11 -18 -4 -10 -30 15
-14 14 -25 21 -25 14 0 -7 -8 -2 -19 9 -10 12 -28 22 -40 22 -15 0 -20 4 -15
13 5 7 0 6 -11 -3 -11 -9 -16 -10 -11 -2 4 7 2 12 -4 12 -6 0 -9 4 -6 9 3 5 0
9 -7 8 -42 -1 -59 4 -54 17 4 10 0 12 -14 9 -11 -3 -19 0 -19 7 0 9 -4 9 -17
-1 -15 -12 -16 -12 -10 3 4 13 2 15 -10 11 -9 -4 -14 -2 -10 3 3 6 -10 11 -30
12 -22 2 -44 11 -55 24 -12 14 -18 17 -18 7 0 -9 -3 -10 -8 -3 -4 6 -15 10
-25 8 -10 -1 -21 4 -24 12 -3 8 -9 11 -14 8 -5 -3 -9 1 -9 8 0 9 -3 9 -10 -2
-6 -9 -10 -10 -10 -3 0 6 -9 10 -20 8 -12 -2 -20 2 -20 10 0 8 -5 17 -12 21
-7 4 -8 3 -4 -4 4 -7 3 -12 -3 -12 -5 0 -13 5 -17 11 -4 8 -9 7 -15 -2 -6 -10
-9 -11 -9 -1 0 6 -11 12 -25 12 -14 0 -25 5 -25 10 0 6 -5 10 -11 10 -5 0 -7
-6 -4 -12 4 -7 0 -5 -8 5 -16 20 -32 23 -20 5 4 -7 -5 -5 -20 5 -15 9 -27 13
-27 7 0 -5 -5 -10 -11 -10 -5 0 -7 6 -3 13 5 7 0 6 -11 -3 -15 -12 -17 -12
-10 -1 6 11 4 13 -8 8 -9 -3 -23 1 -32 9 -8 9 -15 13 -15 9 0 -3 -10 0 -22 6
-21 11 -22 11 -9 -4 17 -21 8 -22 -13 -1 -12 12 -16 12 -16 2 -1 -8 -6 -6 -15
6 -15 20 -15 20 -15 0 -1 -18 -1 -18 -14 -1 -13 17 -32 24 -22 8 3 -5 -1 -11
-8 -14 -10 -4 -14 0 -11 11 2 12 -3 18 -15 18 -12 0 -16 -6 -12 -16 3 -9 -6
-5 -22 10 -23 21 -26 22 -20 5 6 -16 5 -18 -7 -10 -8 6 -31 10 -51 10 -21 -1
-38 4 -38 10 0 6 -3 7 -8 0 -10 -14 -32 -17 -32 -4 0 8 -4 8 -13 0 -10 -8 -17
-7 -25 1 -9 9 -12 9 -12 -1 0 -11 -3 -11 -15 -1 -11 9 -15 9 -15 1 0 -7 -5 -9
-11 -6 -13 8 -61 13 -78 7z m6067 -647 c-4 -20 -2 -23 8 -15 10 9 12 4 10 -23
-2 -19 -7 -40 -11 -47 -5 -9 -4 -11 4 -6 8 6 11 -2 8 -28 -3 -20 -1 -39 3 -41
4 -3 4 -22 0 -44 -4 -21 -3 -46 2 -55 5 -9 5 -16 1 -16 -4 0 -8 -43 -7 -95 1
-61 -3 -92 -9 -88 -6 3 -7 1 -3 -5 4 -7 9 -21 11 -33 3 -16 0 -19 -12 -15 -13
6 -14 4 -2 -10 15 -18 19 -53 7 -60 -4 -3 -6 -9 -3 -14 3 -5 1 -11 -4 -15 -6
-3 -8 4 -6 16 2 12 1 19 -2 15 -12 -12 -12 -40 -1 -47 9 -5 9 -11 1 -21 -6 -7
-10 -28 -8 -46 1 -18 -1 -35 -6 -37 -4 -3 -5 -13 -2 -22 4 -11 3 -14 -5 -9
-13 8 -15 -2 -12 -46 1 -14 -4 -29 -9 -33 -8 -4 -8 -12 -1 -25 7 -14 5 -22
-13 -34 -20 -16 -20 -17 -2 -12 19 6 19 5 1 -8 -10 -8 -16 -19 -13 -24 4 -4 0
-20 -8 -35 -8 -15 -10 -27 -4 -27 5 0 9 -4 9 -10 0 -5 -6 -7 -14 -4 -8 3 -17
0 -22 -7 -4 -7 -3 -10 4 -5 7 4 10 -1 9 -14 -1 -11 -6 -20 -11 -20 -5 0 -6 -3
-3 -7 4 -3 1 -13 -6 -21 -9 -13 -9 -14 1 -8 6 4 12 3 12 -2 0 -6 -8 -13 -17
-16 -15 -6 -15 -8 -3 -16 13 -8 12 -10 -2 -10 -10 0 -17 -3 -16 -7 4 -20 -15
-62 -26 -56 -6 3 -6 1 2 -8 14 -16 16 -33 2 -24 -6 4 -10 -5 -10 -19 0 -14 -5
-26 -11 -26 -8 0 -7 -5 1 -15 11 -13 10 -14 -5 -9 -14 6 -16 3 -11 -14 4 -12
2 -23 -5 -28 -8 -5 -9 -3 -4 6 5 9 4 11 -4 6 -9 -6 -9 -11 -1 -21 7 -9 6 -16
-5 -25 -8 -7 -15 -21 -15 -31 0 -10 -5 -21 -12 -25 -7 -5 -8 -3 -3 6 5 9 4 11
-3 6 -16 -10 -16 -39 1 -30 6 4 4 -2 -6 -13 -9 -11 -14 -22 -11 -25 3 -3 0 -9
-7 -14 -8 -5 -10 -3 -4 6 6 9 4 11 -4 5 -7 -4 -11 -16 -8 -26 3 -11 1 -19 -5
-19 -6 0 -7 -8 -4 -17 5 -15 3 -14 -10 2 -14 17 -16 18 -10 2 6 -18 -17 -87
-29 -87 -3 0 -3 6 1 13 4 6 3 8 -2 4 -14 -13 -12 -57 2 -57 8 0 11 -6 7 -17
-4 -11 -3 -14 5 -9 8 5 10 2 6 -8 -3 -9 -1 -16 6 -16 6 0 8 -5 5 -10 -3 -6 1
-13 10 -16 13 -6 14 -8 3 -15 -10 -7 -9 -9 4 -9 12 0 16 -6 13 -21 -3 -17 -1
-19 10 -9 11 9 12 7 8 -11 -5 -17 -3 -20 7 -14 10 6 12 3 8 -13 -4 -12 -1 -25
4 -29 7 -3 8 -1 4 5 -4 7 -2 12 3 12 6 0 11 -9 11 -20 0 -11 5 -20 11 -20 5 0
7 -4 4 -10 -3 -5 -1 -10 5 -10 7 0 9 -7 6 -16 -3 -8 -2 -12 4 -9 6 3 10 -1 10
-10 0 -9 5 -13 10 -10 6 3 10 -3 10 -14 0 -12 5 -21 10 -21 6 0 10 -9 10 -20
0 -12 7 -20 18 -21 11 0 12 -2 4 -6 -9 -4 -7 -10 8 -23 12 -10 22 -22 23 -27
1 -4 5 -7 9 -6 4 2 4 -5 1 -14 -4 -11 -3 -14 5 -9 8 5 12 -2 12 -21 0 -16 5
-34 12 -41 9 -9 8 -12 -4 -12 -9 0 -15 -8 -14 -17 0 -10 -5 -17 -12 -15 -10 2
-10 -2 -2 -18 9 -16 8 -19 -7 -13 -13 5 -15 3 -10 -11 6 -15 3 -17 -15 -13
-20 5 -21 4 -6 -6 16 -11 14 -13 -15 -30 -17 -10 -24 -16 -14 -13 17 5 17 5 0
-18 -10 -13 -21 -22 -24 -20 -4 2 -12 -10 -19 -26 -7 -16 -16 -27 -21 -24 -5
3 -9 -4 -9 -15 0 -14 -5 -19 -15 -14 -9 3 -15 2 -14 -3 4 -21 -2 -35 -11 -29
-5 3 -10 1 -10 -5 0 -6 -4 -8 -10 -5 -6 3 -7 -1 -4 -9 4 -11 0 -16 -10 -16 -9
0 -15 -3 -15 -7 4 -22 -2 -37 -9 -26 -5 8 -12 7 -27 -4 -17 -13 -17 -15 -2 -9
11 3 16 2 12 -4 -3 -6 -13 -10 -21 -10 -8 0 -13 -6 -12 -12 2 -7 -3 -12 -9
-10 -7 1 -13 -3 -13 -9 0 -5 -4 -7 -10 -4 -5 3 -10 -1 -10 -9 0 -14 -11 -20
-32 -17 -4 0 -4 -7 -1 -16 4 -10 2 -14 -5 -9 -6 3 -13 2 -17 -4 -4 -6 -12 -7
-18 -3 -7 4 -6 -1 2 -10 12 -15 12 -17 -4 -11 -12 5 -16 4 -12 -3 4 -6 -1 -10
-10 -9 -10 0 -18 -5 -19 -11 -3 -26 -5 -28 -14 -13 -8 13 -10 13 -10 -2 0 -11
-6 -16 -19 -13 -15 3 -18 -1 -14 -12 4 -11 2 -14 -5 -9 -7 4 -12 2 -12 -4 0
-7 -6 -10 -14 -7 -8 3 -22 -5 -32 -18 -13 -17 -20 -21 -26 -12 -5 8 -8 6 -8
-7 0 -11 -3 -16 -7 -13 -3 4 -12 -1 -20 -11 -8 -9 -12 -11 -8 -4 4 7 0 12 -10
12 -9 0 -14 -4 -11 -8 2 -4 1 -14 -5 -22 -7 -13 -9 -13 -9 0 -1 9 -6 6 -16
-10 -8 -14 -13 -17 -10 -7 5 15 2 16 -14 7 -11 -6 -20 -16 -20 -23 0 -7 -4 -6
-10 3 -8 12 -10 12 -10 1 0 -8 -3 -11 -7 -8 -3 4 -12 -1 -19 -12 -8 -11 -23
-17 -39 -16 -14 2 -25 -1 -25 -6 0 -6 -4 -7 -10 -4 -5 3 -10 0 -10 -8 0 -9
-10 -13 -30 -12 -16 1 -31 -4 -34 -11 -3 -8 -12 -11 -19 -8 -8 3 -17 -2 -21
-11 -3 -9 -10 -13 -16 -10 -18 11 -51 14 -44 4 3 -6 0 -10 -7 -8 -25 3 -40 -1
-35 -9 2 -4 -18 -8 -46 -10 -28 -1 -58 -8 -66 -14 -9 -7 -13 -8 -9 -2 3 6 -1
11 -9 11 -9 0 -13 -6 -9 -16 4 -12 1 -11 -9 2 -14 18 -14 18 -20 -1 -7 -20
-28 -24 -43 -7 -4 4 -3 5 3 2 6 -3 11 0 11 8 0 13 -4 12 -19 -2 -10 -9 -18
-13 -18 -8 0 4 -7 2 -15 -5 -11 -9 -15 -9 -15 -1 0 7 -5 9 -12 4 -18 -11 -41
-10 -57 2 -10 7 -13 7 -8 -1 4 -7 -5 -11 -23 -11 -17 0 -27 5 -23 10 4 6 1 7
-8 1 -20 -12 -139 -12 -139 1 0 5 -5 3 -10 -5 -9 -13 -10 -13 -10 0 0 13 -1
13 -10 0 -5 -8 -10 -10 -10 -4 0 7 -14 10 -35 8 -19 -1 -38 2 -41 8 -5 7 -2 8
6 3 9 -5 11 -4 6 4 -6 9 -11 9 -22 0 -11 -9 -14 -8 -14 2 0 11 -2 11 -10 -1
-6 -10 -10 -11 -10 -2 0 6 -7 12 -15 12 -8 0 -15 -6 -16 -12 0 -7 -4 -4 -9 7
-5 11 -9 15 -9 9 -1 -6 -8 -11 -16 -11 -8 0 -11 5 -8 10 4 6 -4 7 -21 3 -19
-5 -26 -3 -21 4 5 8 -2 11 -23 9 -16 -2 -37 3 -46 10 -9 7 -16 10 -16 6 0 -4
-8 -1 -17 6 -11 10 -14 10 -9 2 4 -7 2 -13 -3 -13 -6 0 -11 4 -11 9 0 5 -7 12
-16 15 -14 5 -15 4 -4 -9 11 -13 10 -14 -4 -9 -9 3 -16 14 -16 23 0 14 -2 14
-10 1 -5 -8 -10 -10 -10 -4 0 7 -13 10 -31 8 -27 -3 -30 -2 -23 18 6 21 6 21
-10 5 -21 -20 -27 -22 -21 -4 4 8 -8 13 -37 14 -23 1 -47 8 -53 16 -6 8 -22
12 -37 10 -22 -3 -28 0 -28 14 0 15 -2 16 -10 3 -8 -13 -10 -12 -10 4 0 16 -2
17 -17 5 -11 -10 -14 -10 -9 -1 7 12 -24 18 -64 12 -10 -1 -9 3 5 14 20 15 20
15 -2 9 -16 -3 -23 -1 -23 8 0 11 -2 11 -10 -1 -8 -12 -10 -12 -15 2 -4 9 -13
14 -21 11 -7 -3 -21 3 -30 12 -14 13 -19 14 -25 3 -6 -9 -9 -8 -9 7 0 15 -2
17 -9 6 -7 -10 -12 -8 -24 9 -9 13 -17 17 -22 11 -3 -6 -11 -11 -16 -11 -6 0
-7 5 -4 10 3 6 -3 10 -15 10 -12 0 -28 7 -37 16 -9 8 -22 13 -29 10 -8 -3 -14
-1 -14 5 0 6 -7 9 -15 6 -8 -4 -17 -1 -21 5 -5 7 -2 8 6 3 8 -5 11 -4 6 3 -3
6 -15 9 -26 7 -11 -2 -20 2 -20 8 0 7 -4 6 -10 -3 -8 -13 -10 -12 -10 4 0 16
-2 17 -17 5 -10 -7 -15 -10 -11 -5 4 4 1 14 -5 21 -9 10 -15 10 -26 1 -12 -9
-14 -8 -9 5 5 13 2 16 -13 12 -11 -3 -19 0 -19 7 0 9 -4 9 -17 -1 -14 -12 -16
-12 -8 0 6 11 3 13 -13 9 -12 -4 -20 -2 -17 2 3 5 1 11 -5 15 -5 3 -10 1 -10
-5 0 -6 -10 -2 -22 10 -12 11 -24 16 -27 12 -3 -5 -16 -3 -28 3 -13 7 -20 16
-15 21 4 4 -1 2 -11 -5 -15 -12 -17 -12 -12 0 4 11 -4 14 -35 13 -34 -1 -38 1
-27 14 10 13 9 14 -12 3 -13 -7 -21 -8 -17 -3 3 6 2 13 -4 17 -5 3 -10 0 -10
-7 0 -9 -3 -9 -8 -2 -4 6 -17 10 -29 9 -12 -1 -19 3 -16 8 3 5 -4 6 -18 2 -19
-5 -21 -4 -9 4 13 9 12 11 -5 12 -11 1 -26 1 -32 0 -7 -1 -13 3 -13 10 0 8 -5
7 -17 -2 -11 -10 -14 -10 -9 -1 4 6 4 12 -1 13 -4 0 -17 2 -28 4 -11 2 -39 7
-62 11 -24 4 -43 11 -43 16 0 5 -5 6 -10 3 -6 -4 -7 -11 -4 -17 4 -7 2 -8 -5
-4 -6 4 -9 12 -5 18 3 5 -2 9 -12 8 -35 -4 -45 0 -38 13 5 8 2 8 -9 -2 -14
-11 -17 -11 -17 0 0 10 -3 10 -11 2 -9 -9 -18 -7 -38 5 -25 16 -26 16 -11 -2
14 -18 14 -19 -8 -7 -13 7 -30 10 -38 7 -7 -3 -18 3 -23 12 -10 16 -10 16 -11
0 0 -9 -4 -19 -9 -22 -5 -4 -7 4 -4 16 4 19 3 20 -6 8 -8 -11 -11 -11 -11 -2
0 10 -5 10 -20 2 -15 -8 -20 -8 -20 1 0 6 -6 9 -14 6 -7 -3 -19 0 -25 6 -8 8
-11 7 -11 -4 0 -12 -2 -12 -10 1 -8 12 -10 12 -10 -5 0 -15 -2 -17 -9 -6 -5 8
-16 11 -24 8 -8 -3 -20 0 -27 6 -10 9 -14 9 -17 0 -3 -9 -10 -10 -24 -3 -10 6
-19 7 -19 2 0 -10 -30 -9 -47 1 -6 4 -14 0 -17 -9 -4 -11 -10 -13 -19 -7 -17
13 -59 14 -73 2 -8 -7 -14 -7 -19 1 -10 16 -25 12 -26 -7 0 -11 -3 -13 -6 -5
-2 6 -9 12 -14 12 -6 0 -8 -4 -5 -9 3 -5 -16 -9 -42 -10 -76 -1 -81 -2 -88
-12 -3 -6 -12 -5 -22 3 -13 11 -15 11 -10 -3 4 -10 1 -16 -8 -16 -9 0 -13 7
-9 16 4 13 2 13 -8 -1 -8 -10 -17 -15 -20 -11 -4 3 -7 1 -7 -6 0 -7 -5 -9 -10
-6 -6 4 -18 1 -27 -7 -12 -9 -15 -9 -9 0 12 21 -12 13 -27 -9 -9 -13 -17 -16
-22 -10 -3 6 -1 11 4 11 6 0 11 5 11 11 0 6 -12 1 -26 -10 -15 -11 -30 -18
-35 -15 -5 3 -9 0 -9 -7 0 -8 -4 -9 -13 0 -10 8 -18 6 -33 -7 -10 -9 -29 -17
-42 -16 -15 1 -21 -3 -18 -12 3 -8 -2 -11 -14 -9 -11 2 -27 -3 -35 -11 -8 -9
-15 -11 -15 -5 0 6 -5 11 -12 11 -6 0 -9 -3 -5 -6 3 -3 0 -12 -6 -19 -9 -9
-17 -10 -32 -3 -11 6 -17 7 -13 3 5 -5 -2 -15 -14 -24 -28 -19 -50 -23 -42 -8
3 7 0 5 -8 -4 -7 -9 -21 -15 -31 -13 -9 1 -15 -1 -13 -4 2 -4 -2 -13 -10 -20
-11 -10 -14 -10 -15 0 0 10 -2 10 -6 0 -2 -6 -9 -10 -14 -6 -5 3 -9 0 -9 -7 0
-9 -3 -9 -14 0 -12 10 -13 8 -9 -11 5 -18 3 -21 -7 -11 -10 9 -18 6 -38 -14
-16 -16 -32 -23 -47 -20 -14 2 -22 0 -19 -7 2 -6 -7 -16 -21 -23 -14 -6 -23
-7 -19 -2 3 5 2 9 -1 9 -9 0 -35 -27 -30 -32 2 -2 -5 -4 -16 -5 -11 -1 -29
-12 -40 -25 -11 -13 -18 -17 -14 -10 3 6 1 12 -4 12 -6 0 -11 -5 -11 -11 0 -6
-7 -9 -15 -5 -8 3 -14 0 -12 -7 1 -7 -4 -11 -10 -10 -7 2 -13 -1 -13 -7 0 -5
-7 -7 -15 -4 -13 5 -19 -4 -17 -27 0 -3 -11 -5 -26 -5 -16 1 -26 -4 -25 -11 2
-7 -3 -10 -11 -7 -8 3 -17 0 -22 -7 -5 -8 -3 -10 6 -4 9 5 11 4 6 -4 -6 -9
-11 -9 -24 1 -13 11 -14 11 -7 -1 6 -11 4 -13 -8 -8 -10 4 -16 2 -14 -6 1 -7
-8 -12 -20 -11 -12 0 -20 -3 -17 -8 3 -4 0 -8 -6 -8 -6 0 -8 -4 -5 -10 4 -6
-1 -7 -11 -3 -11 4 -15 3 -11 -4 4 -7 0 -10 -10 -9 -14 2 -18 12 -17 39 1 21
-3 37 -8 37 -5 0 -4 9 2 20 8 15 8 20 -2 20 -9 0 -9 3 2 10 13 9 13 10 0 10
-11 0 -12 2 -3 8 7 5 9 13 3 21 -4 8 -5 24 -1 35 4 12 7 41 5 66 -1 31 3 49
14 58 14 11 14 12 0 12 -9 0 -19 4 -22 9 -3 5 2 8 11 7 10 0 18 4 18 11 0 6 3
14 6 18 11 10 -2 45 -15 39 -6 -3 -3 1 6 9 10 8 15 17 11 20 -3 4 0 7 8 7 12
0 12 2 0 9 -13 8 -13 12 0 27 12 16 12 17 -1 10 -8 -4 -4 2 10 14 14 12 19 19
13 15 -15 -7 -18 11 -3 20 5 3 10 12 10 18 0 7 -4 6 -10 -3 -6 -9 -10 -10 -10
-3 0 6 5 15 10 18 6 4 8 11 5 16 -4 5 -2 9 3 9 6 0 9 8 8 18 0 9 5 16 12 15
15 -4 16 9 0 25 -9 9 -9 12 1 12 9 0 12 9 9 24 -4 17 -1 23 9 19 9 -4 11 0 6
13 -4 11 -3 15 5 10 7 -4 10 1 7 14 -2 11 1 20 6 20 6 0 7 5 4 10 -3 6 -1 10
4 10 6 0 11 9 11 20 0 11 4 20 9 20 6 0 8 9 6 20 -3 14 2 20 13 20 13 0 14 2
4 9 -11 7 -10 9 3 15 9 3 13 10 10 16 -3 5 0 10 7 10 9 0 9 3 -2 10 -13 8 -12
10 3 10 10 0 16 4 12 9 -3 5 0 13 6 16 5 4 8 14 5 22 -3 8 -2 11 4 8 5 -3 16
8 25 26 12 23 13 29 3 24 -7 -3 -5 0 4 8 10 8 15 17 11 20 -3 4 2 9 11 13 9 3
16 10 16 16 0 5 -6 6 -13 2 -7 -4 -9 -3 -4 2 5 5 14 9 20 9 7 0 11 10 11 22
-1 13 3 20 9 16 6 -4 8 0 4 11 -4 10 -3 15 3 11 6 -3 10 -1 10 5 0 6 5 8 13 4
7 -5 6 0 -3 11 -9 11 -10 16 -2 11 7 -4 15 0 19 11 3 10 14 26 25 36 10 10 18
27 18 37 0 11 4 20 10 20 5 0 15 10 21 23 11 20 11 21 -5 8 -9 -8 -19 -11 -23
-7 -3 3 -1 6 5 6 7 0 12 7 12 16 0 9 -5 12 -12 8 -8 -5 -9 -2 -5 9 4 10 2 17
-4 17 -6 0 -9 7 -5 15 3 8 0 14 -7 12 -7 -1 -11 4 -10 11 2 6 -2 12 -8 12 -5
0 -8 4 -4 9 3 6 -3 15 -12 21 -15 9 -14 10 7 5 25 -5 25 -5 2 6 -20 11 -24 17
-21 35 0 4 -5 11 -13 15 -11 7 -10 11 2 20 12 8 10 9 -8 4 -23 -7 -28 12 -7
27 6 4 2 8 -8 8 -10 0 -15 5 -12 10 3 6 3 15 -1 21 -4 8 -9 7 -15 -2 -6 -10
-8 -7 -6 8 0 12 5 19 9 17 4 -3 5 2 2 10 -3 9 -10 16 -16 16 -5 0 -6 5 -3 10
3 6 -1 10 -9 10 -9 0 -16 5 -16 11 0 5 5 7 11 3 8 -4 8 0 0 15 -7 12 -10 25
-7 30 3 4 -1 17 -10 27 -14 18 -14 17 -4 -6 10 -23 10 -23 -4 -7 -8 10 -13 29
-11 43 1 13 -2 24 -7 24 -5 0 -6 5 -3 10 3 6 0 12 -7 15 -7 3 -14 19 -15 36
-1 17 -8 38 -15 47 -11 13 -11 14 0 8 11 -7 12 -4 3 13 -7 11 -17 21 -24 21
-7 0 -8 3 -2 8 14 10 17 32 4 32 -7 0 -10 12 -7 29 3 21 1 28 -9 24 -17 -6
-17 9 0 26 10 11 10 13 0 7 -9 -5 -13 1 -13 21 0 16 -6 35 -12 42 -9 10 -9 12
-1 7 6 -3 15 -1 19 5 4 7 3 9 -3 6 -6 -4 -19 0 -29 8 -18 14 -18 15 0 9 16 -6
17 -4 8 13 -6 11 -8 23 -5 27 3 3 0 6 -8 6 -11 0 -11 2 1 10 8 5 11 10 5 10
-5 0 -11 18 -12 40 -2 25 1 39 7 35 16 -10 11 1 -7 16 -14 12 -16 12 -8 0 5
-9 4 -12 -3 -8 -11 8 -11 25 1 45 5 6 4 12 -1 12 -5 0 -12 14 -14 30 -3 17 -1
30 4 30 5 0 6 6 1 13 -4 6 -6 20 -4 31 2 12 -1 16 -10 11 -9 -6 -9 -4 -3 6 13
20 13 92 0 102 -7 5 -6 10 4 17 13 8 12 11 -5 25 -11 9 -15 14 -9 11 7 -3 14
1 18 9 3 8 0 15 -6 15 -7 0 -6 5 2 15 7 8 8 15 3 15 -5 0 -9 9 -9 19 0 11 4
17 8 15 15 -10 8 9 -9 23 -10 8 -13 12 -7 9 7 -3 14 1 18 9 3 8 0 15 -7 15 -8
0 -6 4 3 10 12 8 12 10 1 10 -11 0 -11 3 0 17 12 15 12 16 -1 8 -13 -8 -13 -7
-1 9 12 14 12 19 2 26 -8 5 -9 10 -3 14 6 3 8 16 4 28 -4 15 -2 19 7 13 10 -6
11 -3 2 14 -10 17 -9 22 4 27 8 4 23 0 32 -7 14 -12 16 -12 9 0 -6 9 -5 12 5
9 8 -3 13 -11 11 -18 -2 -8 5 -9 19 -5 16 5 19 4 14 -6 -6 -9 -3 -11 8 -6 10
3 17 2 17 -3 0 -5 7 -7 16 -3 8 3 25 -4 40 -17 16 -16 24 -19 24 -10 0 9 6 5
16 -8 9 -13 21 -21 27 -19 7 3 22 -5 34 -16 13 -11 23 -16 23 -10 0 6 -6 13
-12 16 -7 2 -10 8 -6 12 4 4 14 -2 24 -14 10 -11 21 -18 26 -15 4 3 8 -3 9
-13 0 -16 1 -16 9 2 7 17 9 17 9 3 1 -12 6 -15 18 -11 11 4 14 3 9 -5 -5 -8 0
-12 13 -12 12 0 21 -6 21 -12 0 -9 4 -8 10 2 8 13 10 12 10 -2 0 -10 5 -18 11
-18 5 0 7 6 3 13 -4 6 2 4 13 -5 11 -10 23 -18 28 -18 4 0 14 -8 22 -17 8 -10
12 -12 8 -6 -4 9 -1 11 9 7 9 -3 16 -10 16 -14 0 -5 9 -7 19 -5 11 2 27 -5 36
-16 10 -10 22 -16 26 -13 5 3 9 -2 9 -10 0 -9 7 -13 20 -11 11 2 33 -7 49 -20
15 -14 31 -22 35 -18 6 6 10 -12 7 -30 -1 -5 3 -6 9 -2 6 3 8 12 4 18 -3 7 4
1 16 -13 12 -14 19 -19 15 -13 -4 9 -1 11 9 7 9 -3 13 -10 10 -15 -3 -5 3 -9
14 -9 11 0 31 -12 46 -26 14 -15 26 -21 26 -15 0 7 5 9 10 6 6 -4 8 -11 5 -16
-4 -5 3 -9 15 -9 14 0 19 -4 14 -12 -5 -8 -2 -8 10 1 9 8 16 10 15 5 -4 -21 2
-35 11 -29 5 3 20 -5 33 -19 17 -18 27 -22 39 -15 13 7 16 5 14 -15 -2 -18 1
-22 16 -18 10 2 18 -1 18 -7 0 -6 3 -10 8 -10 21 4 23 -3 6 -22 -10 -12 -18
-23 -16 -25 6 -10 1 -25 -7 -20 -5 3 -11 -4 -14 -15 -4 -14 -10 -18 -19 -13
-11 6 -11 5 0 -8 15 -19 0 -34 -20 -22 -8 5 -7 0 2 -11 8 -10 10 -16 3 -12 -7
5 -17 -2 -24 -15 -7 -13 -12 -24 -11 -25 6 -11 -13 -31 -24 -26 -10 4 -12 0
-7 -13 4 -10 2 -15 -3 -11 -6 3 -16 -4 -24 -16 -11 -19 -11 -21 1 -12 8 6 3
-1 -11 -14 -14 -13 -18 -20 -10 -16 8 3 6 -1 -4 -9 -11 -9 -16 -19 -12 -23 3
-4 -4 -13 -16 -20 -15 -8 -18 -12 -8 -13 12 0 12 -2 2 -9 -7 -4 -14 -14 -15
-22 -2 -8 -6 -20 -10 -26 -5 -7 -6 -17 -2 -22 3 -5 0 -13 -6 -17 -8 -5 -9 -3
-4 6 5 8 4 11 -2 7 -6 -4 -9 -22 -8 -42 1 -34 -9 -47 -18 -22 -3 6 -4 -1 -4
-18 1 -16 9 -36 17 -43 13 -10 12 -11 -5 -5 -11 3 -17 3 -13 -1 4 -5 2 -20 -3
-35 -9 -25 -9 -25 7 -6 l17 20 -8 -20 c-4 -11 -9 -26 -12 -32 -3 -8 2 -13 12
-13 10 0 13 -4 9 -12 -6 -9 -3 -9 9 0 9 8 22 10 28 6 7 -4 9 -3 5 4 -7 12 28
35 38 24 4 -3 4 1 0 11 -5 13 -2 16 10 11 9 -3 16 -1 16 6 0 6 5 8 12 4 7 -5
9 -2 6 8 -4 8 0 15 8 15 7 0 11 -5 8 -11 -3 -6 4 0 16 14 12 14 19 19 15 12
-6 -11 -3 -11 13 -1 12 7 18 17 15 22 -3 4 1 8 8 6 28 -3 40 1 33 13 -5 8 -2
9 9 5 10 -3 17 -2 17 3 0 5 8 6 17 3 13 -5 15 -2 10 12 -6 15 -5 16 8 5 13
-11 14 -10 9 3 -4 11 0 15 13 13 10 -2 24 4 31 13 8 9 11 10 7 4 -3 -7 -1 -13
4 -13 6 0 11 7 11 15 0 9 6 12 15 9 9 -4 15 0 15 7 0 12 2 12 9 0 7 -11 10 -9
16 9 6 18 9 20 16 9 7 -12 9 -12 9 0 0 8 7 11 20 8 11 -3 18 0 17 7 -1 6 4 10
11 9 6 -2 12 1 12 6 0 5 7 12 16 15 10 4 13 2 8 -7 -6 -8 -3 -8 9 1 9 8 21 11
27 7 6 -4 9 -2 8 3 -2 6 -1 10 2 9 3 0 14 5 26 11 16 8 24 8 33 -1 10 -9 11
-8 6 6 -6 13 -2 17 14 17 12 0 21 6 21 13 0 8 4 7 10 -3 7 -12 10 -12 10 -1 0
8 6 11 16 7 11 -4 15 -2 11 8 -4 11 1 13 19 10 14 -3 23 -1 20 4 -3 5 7 9 22
8 17 -1 26 4 24 12 -1 8 2 11 8 7 6 -4 18 -1 26 6 13 10 17 10 25 -2 7 -12 9
-12 9 1 0 13 1 13 10 0 8 -13 10 -12 10 4 0 16 3 17 12 8 10 -10 16 -8 31 10
10 13 16 17 12 11 -3 -7 -1 -13 4 -13 6 0 11 5 11 11 0 6 7 9 15 6 8 -4 17 -1
21 4 4 7 10 7 17 0 14 -14 27 -14 27 0 0 5 -5 7 -12 3 -7 -4 -8 -3 -4 5 6 9
11 9 22 0 11 -9 13 -9 9 2 -4 10 5 14 35 15 21 1 47 5 57 9 34 15 55 16 47 3
-4 -7 3 -3 15 10 26 26 25 26 45 6 9 -9 16 -11 16 -4 0 6 5 8 10 5 6 -3 10 -2
10 3 0 5 13 12 29 14 17 2 28 1 25 -3 -6 -10 24 -5 33 6 4 4 2 5 -4 1 -9 -5
-11 -2 -6 10 4 11 8 13 11 6 2 -7 13 -12 23 -12 11 0 18 3 16 8 -3 4 24 6 59
5 37 -1 62 2 59 8 -3 5 1 6 9 3 9 -3 13 -11 9 -17 -4 -6 -1 -7 6 -3 7 5 10 15
7 25 -5 13 -3 13 8 -2 9 -12 16 -14 21 -8 3 6 11 11 16 11 6 0 8 -4 5 -8 -2
-4 4 -8 14 -8 10 0 16 6 13 12 -2 7 1 15 7 19 6 3 9 1 8 -6 -2 -6 3 -14 11
-17 10 -3 11 0 5 9 -6 11 -3 10 11 -1 17 -14 18 -13 12 5 -6 17 -3 16 15 -5
12 -14 19 -18 15 -8 -6 16 15 32 27 20 12 -11 36 -10 36 1 0 7 5 5 10 -3 9
-13 10 -13 10 0 0 13 1 13 10 0 9 -13 10 -13 10 0 0 12 2 12 9 1 7 -10 13 -11
30 -2 11 7 21 8 21 3 0 -5 7 -9 15 -9 8 0 15 4 15 8 0 4 13 4 29 -1 21 -6 31
-5 34 3 3 8 11 5 22 -8 9 -11 14 -15 11 -9 -3 7 3 14 14 17 11 3 20 0 20 -5 0
-7 5 -6 14 1 11 9 15 9 18 0 3 -9 9 -9 25 0 18 9 24 8 32 -6 6 -10 11 -13 11
-8 0 7 15 9 36 7 28 -3 35 -1 29 8 -6 10 -4 11 6 4 8 -5 26 -9 42 -10 15 -1
31 -5 35 -9 4 -5 -1 -5 -10 -2 -10 3 -20 2 -22 -2 -8 -12 58 -8 66 4 5 6 8 5
8 -4 0 -11 3 -11 17 0 14 12 16 12 11 -2 -4 -11 0 -15 16 -15 11 1 24 6 28 11
5 6 8 5 8 -2 0 -7 6 -10 13 -7 8 3 26 0 41 -6 21 -8 26 -7 20 3 -4 6 3 3 15
-7 22 -20 22 -20 16 0 -6 16 -3 15 14 -5 19 -21 21 -21 21 -5 1 18 1 18 15 0
8 -11 15 -14 15 -7 0 7 5 9 12 5 19 -12 48 -12 48 0 0 6 4 5 9 -3 5 -7 14 -10
20 -7 6 4 14 1 17 -8 3 -8 13 -17 21 -20 12 -5 13 -3 5 7 -8 10 -6 13 8 13 10
0 17 -3 14 -7 -7 -12 45 -16 56 -5 8 8 9 7 5 -5 -4 -10 -1 -20 6 -25 8 -4 10
-3 5 4 -4 7 -4 12 1 13 4 0 16 2 26 4 9 2 15 -1 11 -6 -3 -5 -10 -6 -16 -3 -7
4 -8 2 -4 -5 4 -6 12 -9 17 -6 5 4 9 2 9 -3 0 -5 10 -8 23 -7 12 1 28 -3 36
-9 11 -8 13 -8 7 2 -4 6 -3 12 3 12 5 0 15 -8 20 -17 10 -17 10 -17 11 0 0 9
4 17 10 17 5 0 7 -7 3 -17 -5 -13 -2 -15 15 -11 14 4 20 2 15 -5 -4 -6 2 -8
15 -5 12 4 22 1 22 -4 0 -6 6 -5 15 2 9 7 18 10 22 6 3 -3 1 -6 -6 -6 -9 0 -8
-4 3 -15 18 -18 30 -20 20 -2 -4 6 3 3 16 -8 13 -11 20 -14 16 -7 -4 6 -2 12
3 12 6 0 11 -5 11 -11 0 -5 5 -7 10 -4 6 3 10 1 10 -6 0 -8 5 -7 17 2 9 8 14
10 11 4 -3 -5 0 -16 8 -23 10 -9 14 -9 14 -1 0 8 4 8 15 -1 12 -10 15 -10 15
1 0 11 2 11 9 -1 6 -8 7 -19 4 -25 -3 -5 0 -5 7 2 11 10 16 9 26 -5 8 -10 13
-12 14 -5 0 10 6 10 25 1 13 -6 22 -15 19 -19 -3 -5 2 -6 10 -3 9 3 16 2 16
-4 0 -5 11 -8 25 -7 13 2 30 -4 37 -13 12 -16 11 -16 -7 -2 -18 14 -19 14 -7
-2 8 -10 20 -14 29 -11 12 5 14 3 8 -8 -6 -11 -5 -12 6 -1 19 17 45 16 30 -1
-8 -10 -7 -14 2 -15 76 -11 87 -15 76 -28 -8 -10 -5 -12 15 -8 18 3 28 -1 32
-11 3 -8 10 -12 15 -9 5 3 9 0 9 -6 0 -6 4 -9 9 -5 5 3 13 1 16 -5 5 -8 12 -7
23 2 13 11 14 10 4 -9 -11 -19 -9 -21 13 -18 15 1 29 -4 35 -14 5 -9 10 -12
10 -8 0 5 7 2 15 -7 9 -8 23 -12 32 -9 11 4 14 3 9 -5 -4 -7 -2 -12 4 -12 6 0
8 -5 4 -11 -4 -7 1 -7 16 1 15 8 20 8 16 1 -4 -6 0 -11 9 -11 9 0 13 -4 10
-10 -3 -5 1 -10 9 -10 9 0 16 -4 16 -10 0 -5 7 -6 17 -3 12 5 14 3 8 -8 -4 -8
-5 -11 0 -7 4 4 14 3 21 -3 8 -7 14 -7 19 1 4 6 1 9 -6 8 -9 -2 -13 10 -13 40
1 23 -3 42 -7 42 -5 0 -9 9 -9 21 0 11 -4 18 -8 15 -5 -3 -9 1 -9 9 0 8 5 11
11 8 6 -4 3 3 -7 14 -14 16 -15 22 -5 26 8 3 6 6 -6 6 -16 1 -17 3 -5 18 8 9
10 14 4 11 -5 -3 -16 0 -23 8 -10 11 -10 14 0 15 10 0 10 2 0 6 -6 2 -10 9 -6
14 3 5 -2 9 -11 9 -13 0 -14 4 -5 20 8 16 8 20 -2 18 -8 -2 -12 5 -10 16 2 10
0 16 -5 13 -4 -3 -14 1 -21 9 -10 11 -10 14 0 14 9 0 9 3 -2 10 -8 5 -10 10
-5 10 6 0 2 5 -7 11 -10 5 -18 20 -18 31 0 12 -3 19 -6 15 -10 -10 -42 36 -39
56 2 9 0 15 -6 12 -9 -6 -14 9 -9 30 1 5 -1 7 -5 3 -10 -10 -35 17 -35 37 0
11 -5 15 -14 12 -11 -4 -13 -1 -9 10 4 11 2 14 -5 9 -8 -5 -10 -2 -6 8 4 11 0
16 -11 16 -15 0 -16 2 -4 17 12 14 12 16 -1 9 -8 -4 -6 0 5 9 11 9 19 21 17
26 -1 6 2 8 8 4 11 -7 52 18 45 28 -3 4 -2 5 1 2 11 -8 45 15 38 26 -3 6 0 10
7 8 8 -1 23 -1 34 0 15 1 17 3 6 10 -10 6 -5 11 19 16 24 5 29 10 19 16 -11 7
-9 9 8 9 12 0 29 8 39 18 18 17 21 18 50 21 8 0 12 6 9 11 -3 6 1 10 9 10 9 0
16 5 16 11 0 5 4 8 9 4 5 -3 16 1 24 9 8 8 17 12 21 9 3 -4 6 -1 6 5 0 7 5 12
11 12 5 0 7 -6 3 -12 -4 -8 -3 -10 2 -5 5 5 9 14 9 20 0 7 6 13 13 13 6 1 15
3 20 4 4 1 10 2 15 1 4 0 7 6 7 14 0 8 5 15 11 15 5 0 7 -6 4 -12 -4 -7 0 -5
8 4 8 10 17 15 20 11 4 -3 7 0 7 8 0 11 2 11 10 -1 9 -13 10 -13 11 0 1 8 1
17 1 20 0 3 10 6 23 6 28 2 58 27 47 40 -4 5 0 3 9 -4 17 -13 53 -6 44 8 -3 5
-1 11 5 15 5 3 10 0 10 -7 0 -10 2 -10 9 1 5 8 14 10 21 6 8 -5 11 -4 7 2 -4
6 0 16 8 23 13 11 14 10 9 -6 -4 -15 -1 -13 16 6 12 14 19 19 15 13 -8 -18 26
-4 43 16 8 9 10 10 7 3 -6 -11 -3 -11 16 0 13 7 27 18 31 23 5 6 8 5 8 -3 0
-7 5 -10 10 -7 6 4 8 10 5 15 -3 5 -1 11 5 15 5 3 10 2 10 -3 0 -5 7 -9 15 -9
9 0 14 6 11 13 -5 13 11 13 31 1 9 -5 11 -3 7 6 -3 8 0 18 7 23 8 4 10 3 5 -4
-4 -7 -2 -12 3 -12 6 0 11 5 11 11 0 6 9 9 20 6 11 -3 18 -1 14 4 -3 5 4 9 16
9 14 0 19 4 14 12 -5 7 -2 9 8 6 8 -4 21 -2 29 3 20 13 22 12 17 -16z m-5358
-65 c0 -5 -2 -10 -4 -10 -3 0 -8 5 -11 10 -3 6 -1 10 4 10 6 0 11 -4 11 -10z
m2733 -7 c-3 -7 -6 -13 -8 -13 -2 0 -5 6 -8 13 -3 8 1 14 8 14 7 0 11 -6 8
-14z m-3553 -43 c0 -5 -5 -10 -11 -10 -5 0 -7 5 -4 10 3 6 8 10 11 10 2 0 4
-4 4 -10z m6043 -1075 c-3 -9 -8 -14 -10 -11 -3 3 -2 9 2 15 9 16 15 13 8 -4z
m762 -1305 c-3 -5 -1 -10 5 -10 6 0 8 -5 4 -11 -4 -8 -9 -7 -15 2 -7 12 -3 29
7 29 3 0 2 -4 -1 -10z m-5315 -34 c0 -2 -8 -10 -17 -17 -16 -13 -17 -12 -4 4
13 16 21 21 21 13z m-959 -89 c-6 -8 -7 -18 -3 -22 4 -5 2 -5 -5 -1 -14 8 -6
36 9 36 7 0 6 -5 -1 -13z m1577 -445 c15 -2 21 1 17 8 -4 7 2 7 20 0 34 -13
38 -13 29 2 -4 6 -3 8 3 5 6 -4 27 -9 47 -12 27 -3 35 -1 29 8 -4 7 0 7 10 -2
9 -7 17 -10 17 -6 0 4 8 1 17 -6 11 -10 14 -10 9 -1 -4 7 -1 12 9 12 9 0 13
-5 9 -11 -4 -8 0 -8 15 0 17 10 21 9 21 -3 0 -8 4 -17 9 -20 5 -4 7 4 3 16 -5
20 -4 21 11 9 9 -7 14 -18 10 -25 -4 -6 1 -5 10 3 9 7 17 10 17 5 0 -5 5 -2
10 6 8 12 10 12 10 1 0 -9 8 -12 25 -9 14 3 27 2 30 -1 2 -4 20 -6 39 -6 20 1
36 -2 36 -6 0 -5 6 -6 14 -3 8 3 17 0 22 -7 5 -8 3 -10 -6 -4 -9 5 -11 4 -6
-4 6 -9 11 -9 22 0 11 9 14 8 14 -2 0 -11 2 -11 10 1 5 8 10 10 10 4 0 -7 17
-11 43 -10 32 1 42 -3 41 -14 -1 -12 9 -15 39 -15 23 0 41 -5 44 -12 3 -7 9
-10 14 -7 5 3 6 11 2 17 -4 7 0 6 10 -2 19 -15 23 -26 5 -15 -6 4 -8 3 -5 -3
4 -5 21 -10 38 -11 18 0 35 -5 38 -10 3 -5 16 -8 29 -7 13 1 26 -3 29 -8 4 -6
1 -7 -7 -2 -9 5 -11 4 -6 -3 5 -8 13 -9 24 -3 16 8 48 -10 36 -21 -2 -3 3 -5
11 -5 8 0 11 5 8 11 -4 6 0 5 9 -1 8 -7 27 -14 42 -15 17 -2 25 -7 21 -16 -2
-7 -1 -11 4 -7 5 3 11 2 14 -2 2 -5 2 -3 1 4 -2 7 3 10 12 6 7 -3 14 -9 14
-13 0 -5 11 -7 25 -5 14 1 28 -2 32 -8 4 -6 1 -7 -7 -2 -9 6 -11 4 -6 -4 5 -7
14 -10 22 -7 8 3 14 0 14 -6 0 -7 5 -6 15 2 12 10 16 9 21 -4 3 -9 15 -16 25
-16 10 0 19 -4 19 -9 0 -6 8 -10 18 -10 39 -1 50 -5 46 -16 -3 -6 7 -10 23 -9
17 0 33 -6 41 -18 7 -10 18 -18 24 -18 7 0 3 7 -8 16 -10 9 -1 5 20 -7 22 -13
36 -17 32 -11 -6 9 -1 10 18 0 14 -6 26 -18 26 -27 0 -13 2 -13 9 -3 10 17 21
17 31 3 3 -7 20 -13 37 -14 24 -2 30 -6 27 -20 -3 -16 -1 -17 13 -5 14 11 17
11 21 -1 4 -11 6 -11 13 0 7 11 9 11 9 1 0 -7 4 -10 10 -7 5 3 7 0 4 -8 -3 -8
1 -14 10 -14 8 0 12 5 9 10 -4 6 -1 7 8 1 8 -4 20 -9 28 -11 8 -1 18 -8 22
-15 7 -10 9 -10 9 2 0 11 3 10 11 -4 9 -15 13 -16 20 -5 7 11 9 11 9 1 0 -7 5
-10 10 -7 6 3 10 1 10 -5 0 -6 5 -8 10 -5 6 3 10 1 10 -4 0 -6 5 -11 11 -11 5
0 7 6 4 13 -4 6 0 5 7 -5 9 -10 26 -15 46 -14 21 1 32 -2 32 -11 0 -7 5 -13
11 -13 5 0 7 6 3 13 -4 6 1 5 12 -4 10 -9 25 -14 33 -11 10 3 11 0 5 -9 -7
-12 -5 -12 9 0 14 11 17 11 17 0 0 -10 3 -10 11 -2 13 13 42 5 33 -9 -4 -6 2
-5 14 1 15 8 23 8 28 -1 4 -7 3 -8 -4 -4 -7 4 -12 3 -12 -1 0 -5 24 -10 53
-11 89 -5 102 -7 108 -15 3 -4 15 -9 27 -12 12 -2 27 -7 34 -11 7 -4 8 -3 4 4
-4 7 -1 12 9 12 9 0 13 -4 10 -10 -4 -7 3 -7 19 0 17 6 26 6 26 -1 0 -6 7 -6
20 1 11 6 20 7 20 3 0 -12 154 -10 162 2 5 6 8 7 8 0 0 -12 50 -13 68 -2 6 5
12 4 12 0 0 -5 9 -9 20 -10 11 -1 18 2 16 6 -3 4 1 8 9 8 8 0 15 -4 15 -8 0
-4 11 -6 24 -5 15 0 21 5 16 11 -5 6 2 11 17 12 16 0 21 -2 14 -7 -10 -5 -8
-9 4 -13 9 -4 13 -3 10 3 -3 6 1 10 9 10 9 0 16 5 16 11 0 6 7 3 16 -5 18 -19
21 -19 30 -4 4 6 3 8 -4 4 -6 -3 -13 -2 -16 2 -3 5 15 9 39 8 25 -1 45 2 45 6
0 4 16 6 36 4 19 -1 38 2 41 7 3 6 1 7 -5 3 -6 -3 -13 -2 -17 3 -3 6 4 8 17 6
12 -3 26 1 30 8 5 8 8 8 8 1 0 -17 50 -8 67 13 8 10 12 12 8 6 -3 -7 -2 -13 4
-13 5 0 11 4 13 10 2 5 15 11 31 12 15 1 27 7 27 13 0 5 5 3 10 -5 9 -14 12
-12 9 6 -2 15 26 22 40 11 12 -10 13 -9 6 2 -6 11 -2 13 19 9 17 -4 26 -1 26
8 0 7 5 16 12 20 7 4 8 3 4 -4 -11 -19 5 -14 20 6 9 11 13 13 14 4 0 -7 5 -10
10 -7 6 4 7 12 3 18 -4 7 1 6 11 -2 9 -8 16 -10 15 -5 -4 21 2 26 17 14 12
-11 15 -11 12 0 -2 7 3 15 11 18 10 3 11 0 5 -9 -6 -11 -5 -12 8 -2 8 7 19 9
24 5 4 -4 2 2 -6 12 -9 12 -10 17 -3 12 14 -8 54 10 66 31 7 11 12 11 23 2 10
-8 14 -8 14 -1 0 7 8 9 18 5 15 -6 16 -5 2 12 -14 17 -13 18 3 12 10 -4 17 -2
17 6 0 9 2 9 8 0 6 -10 12 -10 28 3 10 8 12 12 4 8 -12 -5 -13 -4 -3 6 7 7 23
14 35 16 13 1 26 3 30 3 4 1 4 9 1 19 -6 15 -5 15 10 3 13 -10 17 -10 17 -1 0
8 8 10 21 7 16 -4 18 -3 8 9 -9 11 -8 14 6 14 10 0 24 8 32 18 8 9 11 11 7 3
-5 -10 5 -7 28 7 19 12 39 18 44 14 4 -4 3 0 -4 9 -11 14 -9 16 10 15 13 0 22
4 21 11 -2 8 4 10 14 6 12 -5 14 -3 8 7 -6 10 -4 12 9 7 14 -6 17 -3 12 10 -6
14 -4 15 5 6 9 -9 16 -7 31 10 11 12 17 15 13 7 -4 -8 1 -6 10 5 9 11 21 19
26 18 5 -2 9 1 9 7 0 5 6 7 14 4 8 -3 17 0 22 7 4 7 3 10 -3 6 -5 -3 -10 0
-10 7 0 8 8 11 19 8 10 -2 18 1 18 9 0 7 3 9 7 6 3 -4 11 0 17 8 10 14 13 13
28 -5 10 -11 13 -20 7 -20 -5 0 -8 -4 -4 -9 3 -5 0 -13 -6 -17 -8 -4 -9 -3 -5
4 4 7 2 12 -3 12 -14 0 -14 -13 1 -28 9 -9 9 -12 -1 -12 -10 0 -11 -3 -2 -14
8 -10 9 -16 1 -21 -6 -3 -8 -11 -5 -16 4 -5 1 -9 -6 -9 -8 0 -8 -4 1 -15 11
-13 10 -14 -1 -10 -10 4 -15 -3 -17 -21 -1 -15 -8 -34 -15 -42 -9 -13 -9 -14
1 -8 6 4 12 2 12 -3 0 -6 -5 -11 -11 -11 -8 0 -7 -6 2 -17 10 -11 10 -14 2 -9
-9 5 -13 1 -13 -11 0 -15 -2 -16 -11 -3 -9 13 -10 12 -5 -2 3 -10 9 -26 12
-35 5 -15 4 -16 -5 -3 -9 13 -11 11 -11 -7 0 -12 -5 -25 -11 -28 -6 -4 -8 -13
-5 -21 3 -8 -1 -14 -9 -14 -8 0 -15 -5 -15 -11 0 -7 7 -8 17 -4 12 4 7 -5 -12
-26 -17 -18 -22 -27 -12 -20 24 19 21 6 -5 -19 -12 -11 -16 -20 -9 -20 9 0 9
-3 -1 -14 -7 -8 -17 -11 -23 -8 -5 3 -4 -1 3 -10 10 -13 10 -18 1 -24 -8 -5
-9 -3 -4 6 5 8 4 11 -2 7 -5 -3 -9 -20 -8 -36 2 -27 0 -29 -19 -19 -18 10 -19
9 -8 -4 10 -13 10 -17 -4 -22 -13 -5 -14 -9 -4 -21 10 -12 10 -15 -3 -15 -9 0
-19 -5 -23 -12 -5 -7 -2 -9 7 -4 8 4 6 1 -3 -7 -14 -11 -15 -16 -5 -27 7 -7 8
-11 2 -8 -5 3 -18 -3 -27 -14 -10 -10 -13 -18 -6 -18 6 0 1 -8 -10 -19 -12
-10 -22 -26 -22 -35 0 -11 -5 -14 -12 -10 -7 5 -9 2 -5 -9 4 -11 2 -14 -8 -11
-9 4 -12 0 -8 -14 3 -14 -1 -22 -16 -27 -11 -3 -20 -9 -20 -13 3 -20 -3 -31
-20 -37 -12 -4 -18 -13 -16 -25 2 -10 -6 -27 -18 -37 -21 -18 -21 -18 -7 2 14
18 14 19 -2 7 -10 -8 -20 -23 -24 -34 -3 -11 -11 -17 -18 -15 -7 3 -13 -1 -13
-9 0 -7 5 -11 11 -8 6 3 3 -1 -6 -9 -10 -8 -15 -17 -11 -21 4 -4 0 -4 -9 -1
-9 4 -19 1 -24 -6 -5 -8 -3 -10 7 -4 12 8 12 6 0 -8 -7 -9 -18 -14 -23 -11 -5
3 -8 -2 -6 -12 2 -13 -2 -18 -15 -16 -9 2 -16 -1 -15 -5 4 -13 -50 -65 -61
-58 -6 3 -9 0 -5 -8 3 -8 -5 -19 -18 -26 -13 -6 -15 -9 -5 -7 26 8 20 -3 -9
-14 -16 -7 -23 -14 -18 -22 5 -9 2 -8 -9 1 -15 12 -17 12 -11 -3 6 -14 -5 -21
-28 -17 -5 0 -7 -2 -5 -7 3 -9 -45 -57 -58 -57 -5 -1 -9 -7 -7 -15 3 -11 0
-11 -13 0 -13 11 -15 10 -9 -4 4 -9 3 -16 -2 -15 -22 4 -35 -2 -28 -13 5 -8 2
-9 -9 -5 -10 3 -16 2 -14 -4 1 -6 -9 -18 -23 -27 -19 -14 -22 -14 -15 -2 8 13
6 13 -8 1 -9 -7 -15 -17 -12 -21 7 -11 -32 -23 -45 -15 -5 3 -8 0 -5 -7 2 -7
-8 -22 -23 -33 -19 -13 -23 -14 -14 -3 11 14 10 16 -7 11 -13 -3 -18 -10 -14
-21 4 -10 2 -13 -5 -8 -7 4 -15 0 -18 -9 -6 -13 -8 -14 -15 -3 -7 10 -9 9 -9
-4 0 -9 -5 -20 -12 -24 -7 -5 -8 -3 -3 7 8 12 6 12 -8 1 -9 -8 -21 -11 -26 -8
-6 4 -8 -1 -6 -12 2 -14 -3 -17 -31 -17 -25 1 -31 -2 -24 -10 14 -17 1 -26
-21 -14 -11 5 -18 6 -17 2 2 -4 -1 -9 -6 -10 -5 -1 -12 -5 -15 -10 -3 -4 -15
-15 -25 -23 -18 -13 -19 -13 -11 0 7 12 6 13 -7 3 -8 -7 -18 -9 -22 -5 -4 4
-7 3 -6 -3 5 -22 -1 -27 -15 -15 -13 11 -14 10 -8 -5 5 -14 3 -17 -10 -12 -9
3 -17 2 -17 -3 0 -6 -9 -10 -21 -10 -13 0 -18 -4 -13 -12 4 -6 3 -8 -4 -4 -6
3 -13 2 -17 -4 -3 -5 -11 -10 -16 -10 -6 0 -7 5 -4 11 4 6 -2 5 -14 -3 -12 -7
-21 -16 -21 -21 0 -4 -4 -6 -9 -2 -5 3 -17 -5 -26 -17 l-17 -23 6 25 c3 14 3
19 0 12 -3 -6 -10 -10 -15 -6 -5 3 -8 0 -7 -8 2 -8 -7 -13 -25 -12 -23 0 -26
-3 -21 -20 4 -17 3 -18 -5 -6 -6 8 -11 11 -11 5 0 -5 -5 -3 -10 5 -8 13 -10
12 -10 -4 0 -11 -3 -16 -7 -13 -3 4 -13 1 -21 -6 -13 -9 -14 -9 -8 0 4 7 3 13
-3 13 -5 0 -13 -10 -16 -21 -5 -16 -9 -18 -15 -8 -7 10 -11 10 -24 0 -9 -7
-22 -11 -31 -8 -8 4 -17 1 -21 -5 -4 -7 -3 -8 4 -4 18 11 14 0 -5 -15 -10 -8
-14 -9 -10 -2 4 6 3 14 -3 18 -5 3 -10 -1 -10 -9 0 -10 -6 -13 -15 -10 -8 4
-15 1 -15 -6 0 -10 -3 -10 -15 0 -11 9 -15 9 -15 1 0 -7 -4 -10 -9 -7 -5 3
-11 -1 -14 -9 -4 -8 -15 -12 -27 -10 -11 2 -20 1 -20 -3 0 -4 -20 -7 -44 -7
-33 1 -46 -3 -49 -15 -3 -10 -14 -15 -33 -14 -16 1 -29 3 -29 4 0 1 -8 3 -18
5 -10 2 -21 -3 -24 -11 -4 -11 -9 -12 -18 -4 -10 8 -16 7 -22 -5 -5 -9 -26
-18 -46 -20 -26 -2 -35 0 -30 8 4 7 -4 4 -19 -5 -14 -9 -29 -14 -32 -11 -4 4
-14 8 -24 9 -14 2 -14 0 3 -13 20 -16 16 -15 -30 3 -12 5 -14 2 -8 -12 7 -18
6 -18 -12 0 -17 17 -20 17 -29 3 -9 -14 -11 -14 -23 1 -11 14 -12 14 -8 1 5
-13 -5 -15 -68 -15 -62 1 -74 -1 -69 -14 4 -11 1 -11 -15 3 -15 13 -22 15 -25
6 -2 -7 -14 -13 -27 -14 -15 -1 -20 2 -16 13 4 12 3 12 -9 3 -11 -9 -20 -10
-35 -2 -14 8 -22 8 -27 -1 -4 -7 -3 -8 4 -4 7 4 12 5 12 2 0 -3 -9 -10 -20
-16 -17 -9 -19 -8 -13 7 5 15 3 16 -8 6 -16 -16 -33 -17 -23 -2 4 7 1 10 -7 7
-8 -3 -13 -10 -12 -15 1 -5 -11 -7 -28 -5 -18 3 -26 9 -22 16 3 6 0 6 -8 -1
-17 -17 -32 -17 -23 0 4 6 -3 3 -15 -7 -22 -20 -22 -20 -15 0 7 17 6 17 -9 5
-14 -11 -17 -11 -18 0 0 8 -4 5 -9 -6 -6 -15 -9 -16 -9 -4 -1 11 -11 16 -35
15 -19 -1 -32 -4 -30 -8 6 -10 -27 2 -43 15 -8 5 -13 6 -13 0 0 -5 6 -15 13
-23 6 -8 -1 -4 -17 10 -16 14 -26 20 -22 13 3 -6 2 -14 -4 -18 -5 -3 -10 2
-11 12 0 11 -3 13 -6 5 -4 -10 -8 -10 -19 -1 -10 8 -14 8 -14 0 0 -7 -8 -8
-22 -2 -13 4 -38 7 -55 6 -18 -2 -33 1 -33 6 0 6 -9 5 -21 -2 -15 -8 -19 -8
-15 0 12 19 -43 17 -57 -2 -6 -8 -7 -5 -3 5 3 10 4 18 2 18 -3 0 -11 3 -20 6
-9 3 -16 1 -16 -6 0 -6 5 -8 12 -4 7 4 8 3 4 -4 -8 -13 -36 -5 -36 10 0 5 -9
7 -19 3 -11 -3 -23 -1 -26 6 -6 8 -10 7 -16 -2 -8 -12 -11 -12 -18 0 -10 16
-27 21 -81 24 -19 2 -40 6 -47 10 -6 4 -14 3 -18 -3 -4 -7 -12 -7 -26 0 -10 6
-19 8 -19 4 0 -4 -9 1 -20 11 -10 9 -26 15 -35 12 -8 -4 -15 -2 -15 4 0 6 -4
7 -10 4 -5 -3 -10 -1 -10 4 0 6 -5 11 -10 11 -6 0 -9 -3 -8 -7 2 -5 -1 -8 -7
-8 -5 0 -9 4 -7 9 2 5 -4 6 -13 2 -9 -3 -13 -2 -10 3 3 5 1 12 -5 16 -5 3 -10
2 -10 -3 0 -5 -7 -9 -15 -9 -8 0 -11 5 -8 10 4 6 0 8 -10 4 -10 -4 -17 -1 -17
6 0 9 -3 8 -9 -1 -6 -10 -10 -9 -14 7 -4 18 -9 20 -31 11 -22 -8 -26 -7 -26 8
0 15 -2 15 -10 2 -7 -11 -10 -11 -10 -2 0 7 -4 11 -9 7 -5 -3 -15 1 -23 8 -7
8 -26 13 -41 13 -24 -2 -31 5 -29 25 1 4 -8 4 -20 1 -16 -4 -19 -2 -13 9 7 11
6 12 -6 2 -9 -7 -20 -8 -29 -3 -8 5 -18 6 -22 4 -4 -3 -5 3 -1 13 3 10 3 15
-2 11 -4 -4 -17 -2 -29 4 -21 12 -27 14 -47 17 -5 0 -7 7 -3 14 5 8 2 8 -9 -2
-15 -11 -17 -11 -17 2 0 11 -6 13 -22 9 -16 -4 -19 -2 -13 8 6 10 4 12 -8 7
-10 -3 -17 -2 -17 3 0 5 -8 6 -17 3 -13 -5 -15 -2 -10 11 6 14 3 16 -13 11
-11 -4 -20 -2 -20 4 0 6 -6 11 -14 11 -8 0 -16 4 -18 9 -1 5 -12 11 -23 13
-11 1 -26 11 -34 21 -8 11 -21 17 -32 14 -12 -3 -25 3 -34 16 -8 12 -15 17
-15 12 0 -5 -7 0 -16 11 -8 10 -13 12 -9 4 4 -8 -2 -5 -13 8 -14 15 -22 18
-25 10 -3 -8 -6 -5 -6 6 -1 12 -6 16 -16 13 -8 -4 -17 -1 -21 5 -5 7 -2 8 6 3
9 -6 11 -4 6 4 -5 7 -14 10 -22 7 -8 -3 -14 1 -14 11 0 9 -3 13 -6 10 -10 -9
-46 12 -39 23 4 6 -1 7 -11 3 -13 -5 -15 -3 -9 7 6 10 4 12 -11 6 -10 -4 -15
-4 -12 0 11 10 -15 32 -31 26 -8 -3 -12 -1 -9 4 3 5 0 14 -7 21 -11 10 -15 10
-18 0 -3 -7 -6 -4 -6 6 -1 10 -5 16 -10 12 -5 -3 -12 4 -16 15 -4 11 -11 17
-17 14 -5 -3 -16 3 -24 15 -9 12 -19 19 -24 16 -5 -3 -12 0 -16 6 -5 8 -2 10
7 4 8 -4 1 4 -15 19 -16 14 -33 23 -37 20 -5 -3 -10 0 -10 5 -1 6 -2 15 -3 20
0 5 -5 13 -10 18 -5 5 -6 3 -2 -4 4 -7 3 -13 -2 -13 -6 0 -13 7 -16 16 -3 9
-11 12 -18 8 -9 -6 -9 -3 0 9 12 14 11 16 -7 12 -16 -3 -21 1 -21 17 0 12 -3
19 -6 15 -9 -8 -46 32 -39 43 4 6 -1 7 -11 3 -13 -5 -16 -3 -11 10 3 9 3 16
-1 16 -21 -3 -32 3 -32 17 0 8 -4 12 -10 9 -5 -3 -10 4 -10 15 0 16 -5 20 -15
16 -8 -3 -14 0 -12 7 1 7 -4 11 -11 9 -8 -1 -10 2 -7 8 4 6 -3 19 -14 29 -12
10 -21 26 -21 34 0 11 -6 14 -15 11 -11 -5 -13 -2 -8 12 5 12 3 15 -6 9 -10
-5 -11 -2 -7 13 6 17 3 20 -14 17 -11 -2 -18 0 -15 6 11 16 -5 48 -21 42 -12
-4 -13 -1 -5 20 9 22 8 25 -6 20 -13 -5 -15 -2 -9 12 4 11 4 16 0 12 -9 -9
-45 43 -38 55 3 4 1 8 -4 8 -6 0 -13 7 -16 16 -4 9 -2 13 5 8 8 -4 7 0 0 15
-7 11 -14 21 -17 21 -3 0 -2 -6 2 -12 4 -8 3 -10 -2 -5 -5 5 -9 12 -9 15 0 4
-4 13 -9 21 -6 9 -5 12 1 8 6 -4 14 0 17 9 3 9 11 12 18 8 8 -5 7 0 -2 11 -8
10 -10 16 -4 12 7 -4 15 0 18 9 3 8 11 12 17 8 8 -4 9 -3 5 4 -4 7 -2 12 4 12
6 0 8 5 4 12 -5 8 -2 9 12 4 10 -4 15 -4 12 -1 -4 4 6 20 22 35 16 15 26 31
22 35 -3 3 2 3 11 -1 12 -4 17 -2 15 7 -2 8 4 13 14 13 10 -1 15 2 12 7 -3 5
0 9 6 9 6 0 8 5 4 12 -5 7 -3 8 5 3 14 -8 51 26 51 47 0 9 3 9 10 -2 9 -14 15
-7 11 14 -1 5 5 3 14 -4 13 -11 15 -10 9 4 -4 9 -3 16 2 15 16 -4 44 13 38 22
-3 6 6 8 21 5 24 -4 25 -3 13 11 -11 14 -11 15 0 9 8 -5 19 -1 28 10 9 11 13
13 9 7 -4 -9 -1 -11 10 -7 9 4 14 12 12 19 -5 12 3 14 55 17 23 2 25 5 16 23
-10 18 -10 19 5 6 12 -9 17 -10 17 -2 0 7 4 10 9 7 4 -3 19 4 32 15 13 11 31
18 41 16 11 -3 15 -1 11 6 -4 6 0 8 10 4 10 -3 17 -2 17 3 0 6 10 10 21 10 12
0 28 8 35 18 13 16 14 16 7 -2 -4 -13 -3 -17 5 -12 7 4 12 13 12 21 0 8 9 12
25 10 15 -1 29 4 35 14 5 9 10 11 10 4 0 -15 41 -8 52 9 4 7 8 9 8 4 0 -5 6
-3 13 3 8 6 17 8 20 4 4 -3 7 0 7 8 0 11 2 11 10 -1 8 -12 10 -12 10 -1 0 8 3
11 7 8 3 -4 12 -2 20 4 7 6 22 9 33 6 11 -3 18 -1 15 3 -3 5 9 8 27 7 22 -1
32 3 31 11 -4 16 9 15 26 0 7 -7 12 -8 11 -3 -5 22 1 25 21 14 17 -8 20 -8 14
1 -6 9 2 11 28 8 20 -2 34 -1 32 2 -2 3 6 12 18 20 19 11 20 11 10 -1 -9 -11
-6 -14 15 -15 15 -1 21 1 15 3 -27 10 -11 21 17 13 19 -5 28 -5 25 1 -4 5 1 9
9 9 10 0 13 -6 9 -17 -3 -12 0 -10 11 5 10 13 22 19 29 15 7 -4 23 -9 35 -11z
m312 4 c0 -3 -4 -8 -10 -11 -5 -3 -10 -1 -10 4 0 6 5 11 10 11 6 0 10 -2 10
-4z m-855 -95 c3 -5 2 -12 -3 -15 -5 -3 -9 1 -9 9 0 17 3 19 12 6z m2810 -481
c3 -5 1 -10 -4 -10 -6 0 -11 5 -11 10 0 6 2 10 4 10 3 0 8 -4 11 -10z m-4088
-485 c0 -8 -4 -12 -9 -9 -5 3 -6 10 -3 15 9 13 12 11 12 -6z m1713 -705 c0 -5
-5 -10 -11 -10 -5 0 -7 5 -4 10 3 6 8 10 11 10 2 0 4 -4 4 -10z m730 -216 c0
-8 -19 -13 -24 -6 -3 5 1 9 9 9 8 0 15 -2 15 -3z m-470 -494 c0 -5 -2 -10 -4
-10 -3 0 -8 5 -11 10 -3 6 -1 10 4 10 6 0 11 -4 11 -10z"/>
<path d="M976 6052 c-3 -5 1 -9 9 -9 8 0 12 4 9 9 -3 4 -7 8 -9 8 -2 0 -6 -4
-9 -8z"/>
<path d="M1406 5862 c-3 -5 1 -9 9 -9 8 0 12 4 9 9 -3 4 -7 8 -9 8 -2 0 -6 -4
-9 -8z"/>
<path d="M1500 5816 c0 -3 9 -10 20 -16 11 -6 20 -8 20 -6 0 3 -9 10 -20 16
-11 6 -20 8 -20 6z"/>
<path d="M6410 5546 c0 -2 8 -10 18 -17 15 -13 16 -12 3 4 -13 16 -21 21 -21
13z"/>
<path d="M1820 5360 c-9 -6 -10 -10 -3 -10 6 0 15 5 18 10 8 12 4 12 -15 0z"/>
<path d="M5430 5356 c0 -2 8 -10 18 -17 15 -13 16 -12 3 4 -13 16 -21 21 -21
13z"/>
<path d="M1480 3469 c0 -5 5 -7 10 -4 6 3 10 8 10 11 0 2 -4 4 -10 4 -5 0 -10
-5 -10 -11z"/>
<path d="M6470 3021 c0 -6 4 -13 10 -16 6 -3 7 1 4 9 -7 18 -14 21 -14 7z"/>
<path d="M2950 2956 c7 -7 13 -7 20 0 6 6 3 10 -10 10 -13 0 -16 -4 -10 -10z"/>
<path d="M1565 2831 c-3 -5 -2 -12 3 -15 5 -3 9 1 9 9 0 17 -3 19 -12 6z"/>
<path d="M2786 1098 c3 -5 10 -6 15 -3 13 9 11 12 -6 12 -8 0 -12 -4 -9 -9z"/>
<path d="M6103 6635 c0 -8 4 -12 9 -9 5 3 6 10 3 15 -9 13 -12 11 -12 -6z"/>
<path d="M6998 6283 c7 -3 16 -2 19 1 4 3 -2 6 -13 5 -11 0 -14 -3 -6 -6z"/>
<path d="M3290 6029 c0 -5 5 -7 10 -4 6 3 10 8 10 11 0 2 -4 4 -10 4 -5 0 -10
-5 -10 -11z"/>
<path d="M4570 5945 c0 -7 30 -13 34 -7 3 4 -4 9 -15 9 -10 1 -19 0 -19 -2z"/>
<path d="M230 5560 c0 -5 5 -10 10 -10 6 0 10 5 10 10 0 6 -4 10 -10 10 -5 0
-10 -4 -10 -10z"/>
<path d="M253 3905 c0 -8 4 -12 9 -9 5 3 6 10 3 15 -9 13 -12 11 -12 -6z"/>
<path d="M7095 3361 c-3 -5 -2 -12 3 -15 5 -3 9 1 9 9 0 17 -3 19 -12 6z"/>
<path d="M193 2785 c0 -8 4 -12 9 -9 5 3 6 10 3 15 -9 13 -12 11 -12 -6z"/>
<path d="M1300 1120 c0 -5 5 -10 11 -10 5 0 7 5 4 10 -3 6 -8 10 -11 10 -2 0
-4 -4 -4 -10z"/>
</g>
</svg>
