<?xml version="1.0" ?><svg height="128" id="svg8" version="1.1" viewBox="0 0 33.866666 33.866668" width="128" xmlns="http://www.w3.org/2000/svg" xmlns:svg="http://www.w3.org/2000/svg" xmlns:xlink="http://www.w3.org/1999/xlink"><defs id="defs2"><clipPath clipPathUnits="userSpaceOnUse" id="clipPath5292"><ellipse cx="554.68481" cy="1234.8002" id="ellipse5294" rx="46.906162" ry="46.90797" style="display:inline;opacity:0.469;fill:#ffaaaa;fill-rule:evenodd;stroke:#333333;stroke-width:3.5625;stroke-linecap:round;stroke-linejoin:round;stroke-miterlimit:4;stroke-dasharray:none;stroke-dashoffset:6.5999999;stroke-opacity:1"/></clipPath><clipPath clipPathUnits="userSpaceOnUse" id="clipPath6174"><ellipse cx="128.2972" cy="1416.0679" id="ellipse6176" rx="55.76445" ry="55.766594" style="display:inline;opacity:0.572;fill:#ff9696;fill-opacity:1;fill-rule:evenodd;stroke:#333333;stroke-width:4.21448183;stroke-linecap:round;stroke-linejoin:round;stroke-miterlimit:4;stroke-dasharray:none;stroke-dashoffset:6.5999999;stroke-opacity:1"/></clipPath><clipPath clipPathUnits="userSpaceOnUse" id="clipPath5123"><ellipse cx="68.499504" cy="1656.6876" id="ellipse5125" rx="71.409416" ry="71.223892" style="display:inline;opacity:0.45199998;fill:#ffe680;fill-rule:evenodd;stroke:none;stroke-width:4.21448183;stroke-linecap:round;stroke-linejoin:round;stroke-miterlimit:4;stroke-dasharray:none;stroke-dashoffset:6.5999999;stroke-opacity:1"/></clipPath><clipPath clipPathUnits="userSpaceOnUse" id="clipPath8754"><ellipse cx="205.48343" cy="1298.3982" id="ellipse8756" rx="78.18396" ry="83.010139" style="display:inline;opacity:0.419;fill:#ffaaaa;fill-opacity:1;fill-rule:evenodd;stroke:#333333;stroke-width:4.21448183;stroke-linecap:round;stroke-linejoin:round;stroke-miterlimit:4;stroke-dasharray:none;stroke-dashoffset:6.5999999;stroke-opacity:1"/></clipPath><clipPath clipPathUnits="userSpaceOnUse" id="clipPath11474"><ellipse cx="230.12242" cy="1486.3468" id="ellipse11476" rx="55.76445" ry="55.766594" style="display:inline;opacity:0.32099998;fill:#efb5e3;fill-opacity:1;fill-rule:evenodd;stroke:none;stroke-width:4.21448183;stroke-linecap:round;stroke-linejoin:round;stroke-miterlimit:4;stroke-dasharray:none;stroke-dashoffset:6.5999999;stroke-opacity:1"/></clipPath><clipPath clipPathUnits="userSpaceOnUse" id="clipPath5143"><ellipse cx="209.94763" cy="1573.1123" id="ellipse5145" rx="55.764446" ry="55.766594" style="display:inline;opacity:0.43500001;fill:#ffaaaa;fill-rule:evenodd;stroke:#333333;stroke-width:4.21448183;stroke-linecap:round;stroke-linejoin:round;stroke-miterlimit:4;stroke-dasharray:none;stroke-dashoffset:6.5999999;stroke-opacity:1"/></clipPath></defs><g id="layer1" transform="translate(0,-263.13332)"><g id="g7122" transform="matrix(0.12263172,0,0,0.12263172,-198.51526,212.70251)"><path d="m 1704.0527,412.07812 c -18.5509,-0.25135 -40.166,5.76368 -40.166,5.76368 a 9.8480716,9.8480716 0 0 0 -5.3555,15.43554 c 0,0 5.3651,7.14682 12.6231,15.16993 7.258,8.0231 15.794,17.07442 26.0215,21.82031 9.4608,4.39019 20.3747,4.79086 29.7851,4.94922 9.4105,0.15835 17.1192,-0.48047 17.1192,-0.48047 a 9.8480716,9.8480716 0 0 0 8.7929,-12.00781 c -1.64,-7.17477 -5.018,-15.94619 -10.0156,-24.54102 -4.9976,-8.59483 -11.466,-17.063 -20.7304,-22.25195 -5.8741,-3.28995 -11.8911,-3.77365 -18.0743,-3.85743 z" id="path6730" style="display:inline;fill:#000000;fill-opacity:1;fill-rule:evenodd;stroke:none;stroke-width:9;stroke-linecap:round;stroke-linejoin:round;stroke-miterlimit:4;stroke-dasharray:none;stroke-dashoffset:0;stroke-opacity:1" xlink:href="#path6701"/><path d="m 1761.6309,422.59766 c -0.991,-0.0206 -1.9299,0.0567 -2.7754,0.17773 -3.3812,0.48398 -6.3373,1.56282 -9.2188,4.5625 -4.4295,4.61088 -4.7317,10.52411 -4.4746,14.38477 0.2571,3.86065 0.8838,6.90937 0.918,8.26757 0.1454,5.77384 1.3509,9.97208 1.4551,12.74415 0.08,2.13104 -0.3946,9.51757 -0.3946,9.51757 a 9.0520802,9.0520802 0 0 0 3.0547,7.50782 c 4.2019,3.68528 10.3897,3.89971 13.7578,3.10742 3.3681,-0.7923 5.4468,-1.77555 6.1192,-1.93555 a 9.0520802,9.0520802 0 0 0 4.4453,-15.0625 c -3.5303,-3.68981 -3.9331,-13.20764 -3.709,-23.78516 -0.052,2.47206 -0.1788,1.27077 0.9355,-0.89648 0.5572,-1.08363 1.3655,-2.5151 1.7579,-5.03516 0.3923,-2.52005 -0.3505,-6.6876 -2.6329,-9.3125 -2.8205,-3.24391 -6.2653,-4.18045 -9.2382,-4.24218 z" id="path6732" style="display:inline;fill:#000000;fill-opacity:1;fill-rule:evenodd;stroke:none;stroke-width:6;stroke-linecap:butt;stroke-linejoin:miter;stroke-miterlimit:4;stroke-dasharray:none;stroke-opacity:1" xlink:href="#path5248"/><path d="m 1771.2031,454.76562 c -8.3064,0.57247 -16.3727,2.75046 -23.5605,5.26563 -4.7919,1.67678 -9.1256,3.54414 -12.8067,5.48242 -3.681,1.93828 -6.4048,2.95943 -9.9179,7.40821 -7.2586,9.19158 -10.7252,17.86953 -12.5742,24.97851 -1.8491,7.10898 -2.4329,12.0981 -4.1524,16.47461 -6.8266,17.37516 -13.5125,26.19564 -23.7754,43.25781 -13.8666,23.05301 -14.0903,45.40415 -11.2051,61.625 3.1121,17.49647 13.7965,32.26145 26.3438,42.74414 16.8898,14.11062 39.0559,24.48326 62.3613,24.56836 25.4261,0.093 51.0761,-10.13969 69.7402,-27.13086 a 11.84574,11.84574 0 0 0 0,0 c 14.0949,-12.83154 21.1965,-30.8455 24.3027,-47.72851 2.9532,-16.05108 0.2632,-32.15762 -4.5293,-46.34766 -6.0217,-17.83032 -20.1523,-32.07633 -24.9238,-41.85937 -5.0874,-10.43078 -5.8871,-21.63347 -12.6211,-35.1836 -4.3728,-8.79912 -8.7587,-22.57988 -22.6445,-30.66601 a 11.84574,11.84574 0 0 0 -2.0215,-0.9336 c -3.222,-1.13622 -6.4573,-1.70172 -9.6562,-1.94531 -2.7983,-0.21309 -5.5926,-0.20059 -8.3614,-0.01 z" id="path6728" style="display:inline;fill:#000000;fill-opacity:1;fill-rule:evenodd;stroke:none;stroke-width:6;stroke-linecap:butt;stroke-linejoin:miter;stroke-miterlimit:4;stroke-dasharray:none;stroke-opacity:1" transform="translate(2.5973315e-5,1.682683e-5)" xlink:href="#path4147"/><path d="m 1743.2737,464.92254 c 0,0 -29.0729,2.39082 -41.9526,-3.58588 -14.4132,-6.6882 -34.9172,-33.9757 -34.9172,-33.9757 0,0 38.0168,-10.05579 50.9111,-2.83381 13.5012,7.56191 23.2624,28.59952 25.9587,40.39539 z" id="path6701" style="display:inline;fill:#88aa00;fill-opacity:1;fill-rule:evenodd;stroke:none;stroke-width:9;stroke-linecap:round;stroke-linejoin:round;stroke-miterlimit:4;stroke-dasharray:none;stroke-dashoffset:0;stroke-opacity:1"/><path d="m 1734.2124,480.26201 c -12.5085,15.83964 -10.2388,26.33285 -14.9977,38.44556 -7.2962,18.57031 -14.6438,28.39762 -24.6487,45.03084 -12.2226,20.31983 -12.2664,38.97486 -9.6927,53.44426 2.4573,13.81542 11.5015,26.72964 22.2745,35.72997 15.0876,12.60495 35.1448,21.74264 54.8107,21.81445 22.0828,0.0808 45.4004,-9.1836 61.7247,-24.04465 11.3413,-10.32475 17.8547,-26.03625 20.6289,-41.11439 2.4503,-13.31797 0.2299,-27.58575 -4.1033,-40.41593 -4.5433,-13.45261 -18.122,-27.69464 -24.3469,-40.45755 -6.1216,-12.55118 -7.0498,-23.97095 -12.5819,-35.10266 -4.7726,-9.60364 -8.7286,-20.30254 -17.9997,-25.70144 -15.9898,-5.63873 -46.8905,7.0816 -51.0679,12.37154 z" id="path4147" style="display:inline;fill:#bcd35f;fill-opacity:1;fill-rule:evenodd;stroke:none;stroke-width:6;stroke-linecap:butt;stroke-linejoin:miter;stroke-miterlimit:4;stroke-dasharray:none;stroke-opacity:1"/><path d="m 1756.1647,472.95517 c 0,0 0.5468,-7.04083 0.4146,-10.56154 -0.1592,-4.23548 -1.3442,-8.39545 -1.4507,-12.63251 -0.1357,-5.39369 -2.703,-12.26078 1.0361,-16.15299 1.8279,-1.90281 6.144,-2.81948 7.8752,-0.8284 2.0549,2.36332 -2.2133,5.98182 -2.2796,9.11194 -0.2179,10.28662 -0.977,22.71578 6.2172,30.23518 -4.0227,0.95721 -8.2956,3.91306 -11.8128,0.82832 z" id="path5248" style="display:inline;fill:#c87137;fill-opacity:1;fill-rule:evenodd;stroke:none;stroke-width:6;stroke-linecap:butt;stroke-linejoin:miter;stroke-miterlimit:4;stroke-dasharray:none;stroke-opacity:1"/><path d="m 1717.1957,561.24174 c 1.8317,0.33204 0.5208,12.22487 1.6943,28.99814 0.5387,7.65643 1.7623,16.44396 4.6687,25.11648 0.1476,0.44411 0.2998,0.88828 0.4566,1.33245 2.9065,8.23513 7.0018,15.39393 11.3667,21.36086 10.543,14.46034 21.3902,22.20375 20.3192,23.8385 -0.6671,1.01826 -13.8459,-2.93344 -27.2832,-18.23192 -5.4659,-6.24341 -10.4866,-14.18769 -13.8298,-23.63564 -0.18,-0.5086 -0.3537,-1.01779 -0.5213,-1.52743 -3.2571,-9.97824 -4.1276,-19.76443 -3.8701,-28.09971 0.5609,-18.28337 5.6246,-29.40086 6.9989,-29.15173 z" id="path6796" style="opacity:1;fill:#000000;fill-opacity:1;fill-rule:evenodd;stroke:none;stroke-width:20;stroke-linecap:round;stroke-linejoin:round;stroke-miterlimit:4;stroke-dasharray:none;stroke-dashoffset:0;stroke-opacity:1"/></g></g></svg>